<svg xmlns="http://www.w3.org/2000/svg" xmlns:xlink="http://www.w3.org/1999/xlink" version="1.1" width="17.695140em" height="0.887823em" viewBox="0 -8.250372 210.758035 10.574421" style="vertical-align:-0.195126em"><defs><path id="HZCi_g0-76" d="M.454296-8.2132V-7.699128H1.721544V-.526027H.454296V-.011955H7.161146L7.507846-3.239851H6.993773C6.886177-1.960648 6.43188-.526027 4.542964-.526027H3.299626V-7.699128H4.889664V-8.2132H.454296Z"/><path id="HZCi_g0-77" d="M.490162-8.2132V-7.699128H1.75741V-.753176C1.75741-.549938 1.279203-.526027 .872727-.526027H.490162V-.011955H3.598506V-.526027H3.120299C2.725778-.526027 2.331258-.549938 2.331258-.753176L2.343213-7.555666C2.367123-7.460025 2.414944-7.376339 2.450809-7.292653L2.630137-6.886177C3.431133-5.188543 4.172354-3.443088 4.925529-1.733499L5.511333-.418431C5.606974-.215193 5.66675-.011955 5.953674-.011955C6.192777-.02391 6.264508-.251059 6.348194-.442341L6.957908-1.80523C7.543711-3.120299 8.129514-4.447323 8.715318-5.762391L9.27721-7.017684C9.372852-7.232877 9.492403-7.460025 9.564134-7.687173L9.57609-.526027H8.308842V-.011955H12.254047V-.526027H10.9868V-7.699128H12.254047V-8.2132H9.6C9.396762-8.2132 9.301121-8.117559 9.22939-7.938232L9.097883-7.663263C8.308842-5.798257 7.424159-3.969116 6.635118-2.116065C6.551432-1.924782 6.443836-1.733499 6.38406-1.542217H6.360149C6.204732-2.044334 5.893898-2.606227 5.654795-3.132254C4.99726-4.638605 4.291905-6.144956 3.646326-7.663263L3.514819-7.938232C3.443088-8.117559 3.347447-8.2132 3.144209-8.2132H.490162Z"/><path id="HZCi_g0-78" d="M.454296-8.2132V-7.699128H1.721544V-.753176C1.721544-.549938 1.243337-.526027 .836862-.526027H.454296V-.011955H3.56264V-.526027C3.395268-.526027 3.203985-.514072 3.024658-.514072C2.630137-.514072 2.295392-.561893 2.295392-.812951V-7.268742C2.797509-6.682939 3.275716-6.085181 3.765878-5.487422C5.236364-3.706102 6.682939-1.924782 8.177335-.155417C8.261021-.047821 8.320797-.011955 8.440349-.011955H8.51208C8.679452-.011955 8.775093-.083686 8.775093-.263014V-7.436115C8.775093-7.675218 9.193524-7.711083 9.588045-7.711083C9.755417-7.711083 9.910834-7.699128 10.042341-7.699128V-8.2132H6.933998V-7.699128C7.089415-7.699128 7.256787-7.711083 7.424159-7.711083C7.81868-7.711083 8.201245-7.675218 8.201245-7.436115V-2.355168L3.347447-8.18929L3.072478-8.2132H.454296Z"/><path id="HZCi_g1-33" d="M1.530262-8.547945C1.195517-8.547945 1.052055-8.2132 1.052055-7.962142L1.08792-7.364384C1.195517-5.750436 1.315068-4.112578 1.470486-2.49863C1.482441-2.379078 1.458531-2.163885 1.625903-2.163885H1.637858C1.817186-2.187796 1.829141-3.180075 1.865006-3.658281C1.948692-4.937484 2.092154-6.204732 2.163885-7.483935C2.163885-7.627397 2.199751-7.79477 2.199751-7.950187C2.199751-8.249066 2.032379-8.5599 1.637858-8.5599C1.601993-8.5599 1.566127-8.547945 1.530262-8.547945ZM1.530262-1.159651C1.207472-1.111831 1.0401-.848817 1.0401-.597758S1.231382-.011955 1.601993-.011955S2.199751-.298879 2.199751-.597758C2.199751-.884682 1.948692-1.171606 1.637858-1.171606C1.601993-1.171606 1.566127-1.159651 1.530262-1.159651Z"/><path id="HZCi_g1-76" d="M.490162-8.177335V-7.830635H.884682C1.279203-7.830635 1.637858-7.782814 1.637858-7.340473C1.637858-7.256787 1.625903-7.185056 1.625903-7.113325V-.884682C1.625903-.406476 1.255293-.358655 .860772-.358655H.490162V-.011955H6.503611L6.814446-3.072478H6.551432C6.43188-2.008468 6.336239-.812951 4.94944-.442341C4.60274-.358655 4.25604-.358655 3.897385-.358655H3.024658C2.773599-.358655 2.594271-.430386 2.594271-.753176V-7.304608C2.594271-7.770859 3.024658-7.84259 3.455044-7.84259C3.658281-7.84259 3.861519-7.830635 4.016936-7.830635V-8.177335H.490162Z"/><path id="HZCi_g1-84" d="M.633624-8.117559L.418431-5.451557H.681445C.729265-6.049315 .753176-6.898132 1.099875-7.280697C1.470486-7.734994 2.163885-7.782814 2.713823-7.782814H3.251806C3.490909-7.782814 3.741968-7.758904 3.741968-7.364384V-.908593C3.741968-.418431 3.299626-.3467 2.881196-.3467C2.749689-.3467 2.606227-.358655 2.49863-.358655H2.139975V-.011955H6.312329V-.358655H5.595019C5.140722-.358655 4.710336-.406476 4.710336-.896638V-7.161146C4.710336-7.232877 4.698381-7.304608 4.698381-7.376339C4.698381-7.723039 4.913574-7.782814 5.308095-7.782814H5.69066C6.503611-7.782814 7.352428-7.711083 7.603487-6.682939C7.699128-6.276463 7.723039-5.858032 7.758904-5.451557H8.021918L7.806725-8.117559H.633624Z"/><path id="HZCi_g1-88" d="M.418431-8.177335V-7.830635H.705355C1.075965-7.830635 1.422665-7.79477 1.685679-7.412204C2.379078-6.43188 3.036613-5.415691 3.694147-4.411457L3.837609-4.196264C3.861519-4.160399 3.897385-4.124533 3.897385-4.076712C3.897385-3.969116 3.765878-3.849564 3.706102-3.753923C3.227895-3.024658 2.737733-2.307347 2.235616-1.601993C2.020423-1.267248 1.80523-.908593 1.470486-.681445C1.123786-.442341 .681445-.358655 .263014-.358655V-.011955H2.881196V-.358655C2.594271-.37061 2.235616-.561893 2.235616-.872727V-.932503C2.295392-1.195517 2.570361-1.494396 2.749689-1.75741C3.144209-2.331258 3.550685-2.917061 3.93325-3.502864C3.993026-3.598506 4.064757-3.682192 4.112578-3.777833C4.315816-3.514819 4.495143-3.227895 4.674471-2.952927L6.001494-.980324C6.049315-.908593 6.133001-.812951 6.144956-.71731C6.144956-.466252 5.71457-.358655 5.463512-.358655V-.011955H8.500125V-.358655H8.320797C7.878456-.358655 7.49589-.382565 7.185056-.860772C6.43188-1.996513 5.678705-3.120299 4.913574-4.244085C4.853798-4.339726 4.698381-4.507098 4.698381-4.60274C4.698381-4.734247 5.152677-5.296139 5.36787-5.606974C5.606974-5.965629 5.858032-6.312329 6.097136-6.670984C6.300374-6.981818 6.491656-7.292653 6.802491-7.507846C7.149191-7.746949 7.591532-7.830635 8.009963-7.830635V-8.177335H5.391781V-7.830635C5.678705-7.81868 6.03736-7.627397 6.03736-7.316563C6.03736-7.017684 5.654795-6.623163 5.451557-6.312329C5.248319-6.01345 5.045081-5.726526 4.841843-5.427646C4.722291-5.248319 4.614695-5.057036 4.471233-4.889664C4.387547-5.092902 4.184309-5.34396 4.040847-5.547198C3.765878-5.953674 3.502864-6.348194 3.227895-6.75467L2.905106-7.244832C2.857285-7.304608 2.785554-7.388294 2.785554-7.47198V-7.483935C2.785554-7.711083 3.21594-7.830635 3.466999-7.830635V-8.177335H.418431Z"/><path id="HZCi_g1-97" d="M1.255293-4.399502C1.542217-4.853798 2.068244-5.092902 2.594271-5.092902C3.275716-5.092902 3.825654-4.399502 3.825654-3.741968V-3.096389C2.618182-3.096389 .514072-2.761644 .514072-1.123786V-1.004234C.621669-.191283 1.613948 .119552 2.319303 .119552C2.940971 .119552 3.718057-.263014 3.897385-.920548H3.90934C3.945205-.358655 4.351681 .047821 4.829888 .047821C5.332005 .047821 5.726526-.382565 5.774346-.872727V-1.745455H5.511333V-1.159651C5.511333-.812951 5.451557-.298879 5.057036-.298879C4.674471-.298879 4.590785-.812951 4.590785-1.111831C4.590785-1.243337 4.60274-1.374844 4.60274-1.506351V-3.16812C4.60274-3.299626 4.614695-3.443088 4.614695-3.574595C4.614695-4.698381 3.574595-5.332005 2.594271-5.332005C1.829141-5.332005 .860772-4.877709 .860772-3.945205C.860772-3.598506 1.08792-3.407223 1.374844-3.407223S1.865006-3.634371 1.865006-3.90934C1.865006-4.208219 1.637858-4.399502 1.350934-4.399502H1.255293ZM3.825654-2.881196V-1.745455C3.825654-.896638 3.287671-.131507 2.438854-.131507C1.984558-.131507 1.374844-.490162 1.374844-1.099875C1.374844-2.15193 2.331258-2.689913 3.323537-2.833375C3.490909-2.857285 3.658281-2.84533 3.825654-2.881196Z"/><path id="HZCi_g1-99" d="M4.315816-4.447323C4.27995-4.447323 4.25604-4.459278 4.220174-4.459278C3.945205-4.459278 3.730012-4.23213 3.730012-3.957161C3.730012-3.658281 3.957161-3.455044 4.220174-3.455044C4.495143-3.455044 4.734247-3.646326 4.734247-3.969116C4.734247-4.94944 3.658281-5.332005 2.893151-5.332005C1.446575-5.332005 .418431-3.981071 .418431-2.594271C.418431-1.219427 1.446575 .107597 2.929016 .107597C3.730012 .107597 4.435367-.32279 4.782067-1.147696C4.805978-1.219427 4.853798-1.327024 4.853798-1.422665V-1.470486C4.841843-1.518306 4.794022-1.542217 4.746202-1.542217C4.566874-1.542217 4.566874-1.362889 4.531009-1.243337C4.303861-.609714 3.694147-.155417 3.024658-.155417C1.75741-.155417 1.338979-1.578082 1.338979-2.570361C1.338979-3.550685 1.649813-5.068991 2.988792-5.068991C3.466999-5.068991 4.028892-4.853798 4.315816-4.447323Z"/><path id="HZCi_g1-100" d="M3.58655-8.177335V-7.830635H3.730012C4.208219-7.830635 4.495143-7.806725 4.495143-7.089415V-4.519054C4.112578-4.985305 3.598506-5.272229 2.988792-5.272229C1.530262-5.272229 .418431-4.004981 .418431-2.570361C.418431-1.303113 1.327024 .107597 2.881196 .107597C3.526775 .107597 3.981071-.167372 4.471233-.705355V.107597L6.156912-.011955V-.358655H5.965629C5.606974-.358655 5.248319-.394521 5.248319-.956413V-8.308842L3.58655-8.177335ZM1.338979-2.295392V-2.47472C1.338979-3.347447 1.446575-4.25604 2.271482-4.805978C2.510585-4.94944 2.773599-5.021171 3.036613-5.021171C3.634371-5.021171 4.483188-4.542964 4.483188-3.789788C4.483188-3.634371 4.471233-3.478954 4.471233-3.323537V-1.350934C4.471233-.669489 3.526775-.131507 2.940971-.131507C2.056289-.131507 1.494396-.968369 1.3868-1.829141C1.362889-1.984558 1.362889-2.139975 1.338979-2.295392Z"/><path id="HZCi_g1-101" d="M1.267248-2.785554H4.686426C4.805978-2.785554 4.865753-2.833375 4.865753-2.952927C4.865753-4.184309 4.208219-5.332005 2.797509-5.332005C1.362889-5.332005 .3467-4.028892 .3467-2.642092C.3467-1.590037 .908593-.526027 1.948692-.095641C2.223661 .02391 2.52254 .107597 2.82142 .107597H2.857285C3.730012 .107597 4.578829-.418431 4.829888-1.303113C4.841843-1.338979 4.865753-1.3868 4.865753-1.43462C4.865753-1.494396 4.794022-1.554172 4.734247-1.554172C4.590785-1.554172 4.531009-1.231382 4.447323-1.075965C4.148443-.537983 3.58655-.155417 2.940971-.155417C2.486675-.155417 2.080199-.406476 1.793275-.74122C1.315068-1.315068 1.267248-2.068244 1.267248-2.785554ZM1.279203-3.012702C1.279203-3.921295 1.78132-5.092902 2.773599-5.092902C3.825654-5.092902 4.112578-3.861519 4.112578-3.012702H1.279203Z"/><path id="HZCi_g1-104" d="M.382565-8.177335V-7.830635H.597758C.980324-7.830635 1.291158-7.782814 1.291158-7.232877V-.848817C1.291158-.406476 .980324-.358655 .645579-.358655H.382565V-.011955H2.976837V-.358655H2.701868C2.355168-.358655 2.068244-.406476 2.068244-.848817V-3.036613C2.068244-3.861519 2.486675-5.033126 3.658281-5.033126C4.387547-5.033126 4.542964-4.327771 4.542964-3.622416V-.812951C4.542964-.394521 4.196264-.358655 3.837609-.358655H3.634371V-.011955H6.228643V-.358655H5.953674C5.630884-.358655 5.32005-.37061 5.32005-.824907V-3.53873C5.32005-3.921295 5.308095-4.303861 5.104857-4.638605C4.829888-5.116812 4.267995-5.272229 3.741968-5.272229C3.012702-5.272229 2.271482-4.829888 2.056289-4.124533L2.044334-8.308842L.382565-8.177335Z"/><path id="HZCi_g1-105" d="M.442341-5.140722V-4.794022H.633624C1.016189-4.794022 1.303113-4.734247 1.303113-4.196264V-.860772C1.303113-.418431 1.075965-.358655 .394521-.358655V-.011955H2.86924V-.358655H2.701868C2.355168-.358655 2.056289-.382565 2.056289-.789041V-5.272229L.442341-5.140722ZM1.41071-7.938232C1.08792-7.890411 .920548-7.627397 .920548-7.376339S1.111831-6.790535 1.482441-6.790535S2.080199-7.07746 2.080199-7.364384C2.080199-7.615442 1.888917-7.950187 1.518306-7.950187C1.482441-7.950187 1.446575-7.938232 1.41071-7.938232Z"/><path id="HZCi_g1-108" d="M.394521-8.177335V-7.830635H.609714C.992279-7.830635 1.303113-7.782814 1.303113-7.220922V-.848817C1.303113-.406476 .992279-.358655 .657534-.358655H.394521V-.011955H2.964882V-.358655H2.677958C2.331258-.358655 2.056289-.394521 2.056289-.824907V-8.308842L.394521-8.177335Z"/><path id="HZCi_g1-110" d="M.382565-5.140722V-4.794022H.609714C.956413-4.794022 1.291158-4.746202 1.291158-4.196264V-.860772C1.291158-.418431 1.06401-.358655 .382565-.358655V-.011955H2.976837V-.358655H2.701868C2.355168-.358655 2.068244-.406476 2.068244-.848817V-3.036613C2.068244-3.861519 2.486675-5.033126 3.658281-5.033126C4.387547-5.033126 4.542964-4.327771 4.542964-3.622416V-.812951C4.542964-.394521 4.196264-.358655 3.837609-.358655H3.634371V-.011955H6.228643V-.358655H5.953674C5.630884-.358655 5.32005-.37061 5.32005-.824907V-3.53873C5.32005-3.921295 5.308095-4.291905 5.116812-4.62665C4.841843-5.104857 4.267995-5.272229 3.753923-5.272229C3.16812-5.272229 2.666002-5.057036 2.259527-4.495143C2.15193-4.351681 2.068244-4.208219 2.020423-4.040847L2.008468-5.272229L.382565-5.140722Z"/><path id="HZCi_g1-111" d="M2.749689-5.332005C1.470486-5.212453 .3467-4.100623 .3467-2.582316C.3467-1.219427 1.350934 .107597 2.929016 .107597C4.363636 .107597 5.487422-1.159651 5.487422-2.558406C5.487422-3.897385 4.495143-5.34396 2.905106-5.34396C2.857285-5.34396 2.797509-5.332005 2.749689-5.332005ZM1.267248-2.307347C1.255293-2.402989 1.255293-2.49863 1.255293-2.594271C1.255293-3.419178 1.338979-4.507098 2.259527-4.937484C2.462765-5.033126 2.689913-5.080946 2.905106-5.080946C3.359402-5.080946 3.801743-4.877709 4.100623-4.519054C4.519054-4.028892 4.566874-3.359402 4.566874-2.737733C4.566874-2.068244 4.554919-1.303113 4.100623-.74122C3.801743-.37061 3.359402-.155417 2.905106-.155417C1.912827-.155417 1.398755-1.052055 1.303113-1.936737C1.279203-2.056289 1.279203-2.187796 1.267248-2.307347Z"/><path id="HZCi_g1-112" d="M.334745-5.140722V-4.794022H.549938C.908593-4.794022 1.243337-4.758157 1.243337-4.25604V1.243337C1.243337 1.315068 1.255293 1.398755 1.255293 1.482441C1.255293 1.936737 .896638 1.960648 .502117 1.960648H.334745V2.307347H2.929016V1.960648H2.666002C2.331258 1.960648 2.020423 1.912827 2.020423 1.482441L2.032379-.657534C2.331258-.155417 2.988792 .107597 3.53873 .107597C4.985305 .107597 6.073225-1.195517 6.073225-2.606227C6.073225-3.945205 5.068991-5.272229 3.622416-5.272229C2.964882-5.272229 2.426899-4.94944 1.996513-4.471233V-5.272229L.334745-5.140722ZM5.140722-2.391034C5.080946-1.590037 4.794022-.6934 3.993026-.263014C3.813699-.179328 3.622416-.131507 3.419178-.131507C2.857285-.131507 2.020423-.681445 2.020423-1.291158V-3.287671C2.020423-3.443088 2.008468-3.58655 2.008468-3.741968C2.008468-4.411457 2.82142-5.009215 3.526775-5.009215C4.734247-5.009215 5.152677-3.431133 5.152677-2.606227C5.152677-2.534496 5.152677-2.462765 5.140722-2.391034Z"/><path id="HZCi_g1-114" d="M.334745-5.140722V-4.794022H.526027C.884682-4.794022 1.243337-4.758157 1.243337-4.196264V-.860772C1.243337-.418431 1.016189-.358655 .334745-.358655V-.011955H3.132254V-.358655C3.000747-.358655 2.857285-.3467 2.713823-.3467C2.331258-.3467 1.996513-.406476 1.996513-.848817V-2.47472C1.996513-3.395268 2.139975-4.710336 3.120299-4.99726C3.21594-5.021171 3.299626-5.033126 3.395268-5.033126C3.455044-5.033126 3.502864-5.021171 3.56264-5.021171V-5.009215C3.383313-4.937484 3.275716-4.758157 3.275716-4.566874C3.275716-4.291905 3.502864-4.100623 3.741968-4.100623C4.052802-4.100623 4.220174-4.339726 4.220174-4.578829C4.220174-5.021171 3.801743-5.272229 3.395268-5.272229C2.761644-5.272229 2.295392-4.817933 2.068244-4.291905C2.020423-4.184309 1.960648-4.064757 1.948692-3.945205L1.936737-5.272229L.334745-5.140722Z"/><path id="HZCi_g1-115" d="M3.395268-4.961395C3.060523-5.236364 2.666002-5.332005 2.247572-5.332005C1.3868-5.332005 .394521-4.99726 .394521-3.849564V-3.741968C.836862-1.733499 3.670237-2.964882 3.670237-1.207472C3.670237-.466252 3.000747-.131507 2.367123-.131507C1.171606-.131507 .872727-1.099875 .669489-1.924782C.645579-1.996513 .609714-2.056289 .526027-2.056289C.418431-2.056289 .394521-1.972603 .394521-1.888917V-.035866C.394521 .02391 .418431 .107597 .514072 .107597C.71731 .107597 .884682-.406476 1.016189-.406476H1.028144C1.111831-.382565 1.171606-.286924 1.243337-.227148C1.566127 .011955 1.948692 .107597 2.355168 .107597C3.239851 .107597 4.220174-.334745 4.220174-1.530262C4.220174-2.235616 3.658281-2.86924 3.000747-3.072478C2.355168-3.275716 .932503-3.227895 .932503-4.196264C.932503-4.877709 1.649813-5.116812 2.211706-5.116812C2.905106-5.116812 3.658281-4.746202 3.658281-3.730012C3.658281-3.622416 3.670237-3.53873 3.801743-3.53873C3.897385-3.53873 3.921295-3.610461 3.921295-3.694147V-5.188543C3.921295-5.248319 3.88543-5.332005 3.813699-5.332005C3.658281-5.332005 3.466999-5.045081 3.395268-4.961395Z"/><path id="HZCi_g1-116" d="M1.745455-7.364384C1.745455-6.587298 1.43462-5.045081 .215193-5.045081V-4.805978H1.231382V-2.10411C1.231382-1.936737 1.219427-1.769365 1.219427-1.601993C1.219427-.526027 1.769365 .107597 2.761644 .107597C3.682192 .107597 3.897385-.920548 3.897385-1.661768V-2.175841H3.634371C3.634371-1.996513 3.646326-1.817186 3.646326-1.637858C3.646326-1.123786 3.550685-.155417 2.82142-.155417C2.139975-.155417 2.008468-.980324 2.008468-1.566127V-4.805978H3.694147V-5.152677H2.008468V-7.364384H1.745455Z"/><path id="HZCi_g1-121" d="M.215193-5.152677V-4.805978H.442341C1.099875-4.805978 1.171606-4.363636 1.446575-3.682192C1.888917-2.582316 2.331258-1.458531 2.797509-.358655C2.84533-.263014 2.917061-.107597 2.917061-.02391V.02391C2.86924 .32279 2.666002 .705355 2.546451 .944458C2.319303 1.482441 1.972603 2.187796 1.291158 2.187796C1.0401 2.187796 .908593 2.080199 .6934 1.972603V1.960648C.944458 1.936737 1.135741 1.769365 1.135741 1.506351C1.135741 1.255293 .956413 1.052055 .6934 1.052055S.227148 1.231382 .227148 1.506351C.227148 2.10411 .789041 2.426899 1.279203 2.426899C2.462765 2.426899 2.905106 .777086 3.21594 .011955L4.507098-3.144209C4.805978-3.88543 4.985305-4.794022 5.953674-4.805978V-5.152677H4.088667V-4.805978C4.363636-4.794022 4.62665-4.62665 4.638605-4.327771C4.638605-4.088667 4.507098-3.873474 4.423412-3.646326C4.040847-2.773599 3.718057-1.888917 3.347447-1.016189C2.86924-2.056289 2.49863-3.16812 2.032379-4.220174C2.008468-4.303861 1.948692-4.387547 1.948692-4.483188C1.948692-4.794022 2.355168-4.805978 2.606227-4.805978V-5.152677H.215193Z"/></defs><g id="HZCi_page1"><g fill="#c5c5ce"><use x="0" y="0" xlink:href="#HZCi_g1-84"/><use x="8.452347" y="0" xlink:href="#HZCi_g1-104"/><use x="14.954153" y="0" xlink:href="#HZCi_g1-105"/><use x="18.20505" y="0" xlink:href="#HZCi_g1-115"/><use x="26.722408" y="0" xlink:href="#HZCi_g1-105"/><use x="29.973305" y="0" xlink:href="#HZCi_g1-115"/><use x="38.490662" y="0" xlink:href="#HZCi_g1-76"/><use x="45.803115" y="0" xlink:href="#HZCi_g1-97"/><use x="51.654737" y="0" xlink:href="#HZCi_g1-84"/><use x="59.131813" y="0" xlink:href="#HZCi_g1-101"/><use x="64.333274" y="0" xlink:href="#HZCi_g1-88"/><use x="77.007639" y="0" xlink:href="#HZCi_g1-116"/><use x="81.233814" y="0" xlink:href="#HZCi_g1-121"/><use x="87.410522" y="0" xlink:href="#HZCi_g1-112"/><use x="94.237403" y="0" xlink:href="#HZCi_g1-101"/><use x="99.438864" y="0" xlink:href="#HZCi_g1-100"/><use x="109.841752" y="0" xlink:href="#HZCi_g1-100"/><use x="116.343558" y="0" xlink:href="#HZCi_g1-105"/><use x="119.594455" y="0" xlink:href="#HZCi_g1-114"/><use x="124.145721" y="0" xlink:href="#HZCi_g1-101"/><use x="129.347181" y="0" xlink:href="#HZCi_g1-99"/><use x="134.54862" y="0" xlink:href="#HZCi_g1-116"/><use x="139.099885" y="0" xlink:href="#HZCi_g1-108"/><use x="142.350782" y="0" xlink:href="#HZCi_g1-121"/><use x="152.428572" y="0" xlink:href="#HZCi_g1-105"/><use x="155.67947" y="0" xlink:href="#HZCi_g1-110"/><use x="161.856186" y="0" xlink:href="#HZCi_g1-116"/><use x="166.407451" y="0" xlink:href="#HZCi_g1-111"/><use x="176.160154" y="0" xlink:href="#HZCi_g0-78"/><use x="186.673703" y="0" xlink:href="#HZCi_g0-77"/><use x="199.428299" y="0" xlink:href="#HZCi_g0-76"/><use x="207.507138" y="0" xlink:href="#HZCi_g1-33"/></g></g></svg>
