<svg xmlns="http://www.w3.org/2000/svg" xmlns:xlink="http://www.w3.org/1999/xlink" version="1.1" width="4.006821em" height="0.723533em" viewBox="0 -7.704442 47.723259 8.617643" style="vertical-align:-0.076672em"><defs><path id="CUaV_g0-43" d="M4.770112-2.761644H8.069738C8.237111-2.761644 8.452304-2.761644 8.452304-2.976837C8.452304-3.203985 8.249066-3.203985 8.069738-3.203985H4.770112V-6.503611C4.770112-6.670984 4.770112-6.886177 4.554919-6.886177C4.327771-6.886177 4.327771-6.682939 4.327771-6.503611V-3.203985H1.028144C.860772-3.203985 .645579-3.203985 .645579-2.988792C.645579-2.761644 .848817-2.761644 1.028144-2.761644H4.327771V.537983C4.327771 .705355 4.327771 .920548 4.542964 .920548C4.770112 .920548 4.770112 .71731 4.770112 .537983V-2.761644Z"/><path id="CUaV_g0-49" d="M3.443088-7.663263C3.443088-7.938232 3.443088-7.950187 3.203985-7.950187C2.917061-7.627397 2.319303-7.185056 1.08792-7.185056V-6.838356C1.362889-6.838356 1.960648-6.838356 2.618182-7.149191V-.920548C2.618182-.490162 2.582316-.3467 1.530262-.3467H1.159651V0C1.482441-.02391 2.642092-.02391 3.036613-.02391S4.578829-.02391 4.901619 0V-.3467H4.531009C3.478954-.3467 3.443088-.490162 3.443088-.920548V-7.663263Z"/><path id="CUaV_g0-50" d="M5.260274-2.008468H4.99726C4.961395-1.80523 4.865753-1.147696 4.746202-.956413C4.662516-.848817 3.981071-.848817 3.622416-.848817H1.41071C1.733499-1.123786 2.462765-1.888917 2.773599-2.175841C4.590785-3.849564 5.260274-4.471233 5.260274-5.654795C5.260274-7.029639 4.172354-7.950187 2.785554-7.950187S.585803-6.766625 .585803-5.738481C.585803-5.128767 1.111831-5.128767 1.147696-5.128767C1.398755-5.128767 1.709589-5.308095 1.709589-5.69066C1.709589-6.025405 1.482441-6.252553 1.147696-6.252553C1.0401-6.252553 1.016189-6.252553 .980324-6.240598C1.207472-7.053549 1.853051-7.603487 2.630137-7.603487C3.646326-7.603487 4.267995-6.75467 4.267995-5.654795C4.267995-4.638605 3.682192-3.753923 3.000747-2.988792L.585803-.286924V0H4.94944L5.260274-2.008468Z"/><path id="CUaV_g0-61" d="M8.069738-3.873474C8.237111-3.873474 8.452304-3.873474 8.452304-4.088667C8.452304-4.315816 8.249066-4.315816 8.069738-4.315816H1.028144C.860772-4.315816 .645579-4.315816 .645579-4.100623C.645579-3.873474 .848817-3.873474 1.028144-3.873474H8.069738ZM8.069738-1.649813C8.237111-1.649813 8.452304-1.649813 8.452304-1.865006C8.452304-2.092154 8.249066-2.092154 8.069738-2.092154H1.028144C.860772-2.092154 .645579-2.092154 .645579-1.876961C.645579-1.649813 .848817-1.649813 1.028144-1.649813H8.069738Z"/></defs><g id="CUaV_page1"><use x="0" y="0" xlink:href="#CUaV_g0-49"/><use x="8.509654" y="0" xlink:href="#CUaV_g0-43"/><use x="20.270969" y="0" xlink:href="#CUaV_g0-49"/><use x="29.444788" y="0" xlink:href="#CUaV_g0-61"/><use x="41.870269" y="0" xlink:href="#CUaV_g0-50"/></g></svg>
