<svg xmlns="http://www.w3.org/2000/svg" xmlns:xlink="http://www.w3.org/1999/xlink" version="1.1" width="18.762923em" height="14.793807em" viewBox="3.900125 -180.10155 223.47586 176.201693" style="vertical-align:-0.000000em"><defs><clipPath id="rTWV_clip1"><path d="M217.6015-66.6484V-157.5973L84.9883-179.9023L23.152324-132.0703V-41.12107L155.7655-18.8164Z"/></clipPath><path id="rTWV_g1-48" d="M5.355915-3.825654C5.355915-4.817933 5.296139-5.786301 4.865753-6.694894C4.375592-7.687173 3.514819-7.950187 2.929016-7.950187C2.235616-7.950187 1.3868-7.603487 .944458-6.611208C.609714-5.858032 .490162-5.116812 .490162-3.825654C.490162-2.666002 .573848-1.793275 1.004234-.944458C1.470486-.035866 2.295392 .251059 2.917061 .251059C3.957161 .251059 4.554919-.37061 4.901619-1.06401C5.332005-1.960648 5.355915-3.132254 5.355915-3.825654ZM2.917061 .011955C2.534496 .011955 1.75741-.203238 1.530262-1.506351C1.398755-2.223661 1.398755-3.132254 1.398755-3.969116C1.398755-4.94944 1.398755-5.834122 1.590037-6.539477C1.793275-7.340473 2.402989-7.711083 2.917061-7.711083C3.371357-7.711083 4.064757-7.436115 4.291905-6.40797C4.447323-5.726526 4.447323-4.782067 4.447323-3.969116C4.447323-3.16812 4.447323-2.259527 4.315816-1.530262C4.088667-.215193 3.335492 .011955 2.917061 .011955Z"/><path id="rTWV_g1-49" d="M3.443088-7.663263C3.443088-7.938232 3.443088-7.950187 3.203985-7.950187C2.917061-7.627397 2.319303-7.185056 1.08792-7.185056V-6.838356C1.362889-6.838356 1.960648-6.838356 2.618182-7.149191V-.920548C2.618182-.490162 2.582316-.3467 1.530262-.3467H1.159651V0C1.482441-.02391 2.642092-.02391 3.036613-.02391S4.578829-.02391 4.901619 0V-.3467H4.531009C3.478954-.3467 3.443088-.490162 3.443088-.920548V-7.663263Z"/><path id="rTWV_g1-50" d="M5.260274-2.008468H4.99726C4.961395-1.80523 4.865753-1.147696 4.746202-.956413C4.662516-.848817 3.981071-.848817 3.622416-.848817H1.41071C1.733499-1.123786 2.462765-1.888917 2.773599-2.175841C4.590785-3.849564 5.260274-4.471233 5.260274-5.654795C5.260274-7.029639 4.172354-7.950187 2.785554-7.950187S.585803-6.766625 .585803-5.738481C.585803-5.128767 1.111831-5.128767 1.147696-5.128767C1.398755-5.128767 1.709589-5.308095 1.709589-5.69066C1.709589-6.025405 1.482441-6.252553 1.147696-6.252553C1.0401-6.252553 1.016189-6.252553 .980324-6.240598C1.207472-7.053549 1.853051-7.603487 2.630137-7.603487C3.646326-7.603487 4.267995-6.75467 4.267995-5.654795C4.267995-4.638605 3.682192-3.753923 3.000747-2.988792L.585803-.286924V0H4.94944L5.260274-2.008468Z"/><path id="rTWV_g1-52" d="M4.315816-7.782814C4.315816-8.009963 4.315816-8.069738 4.148443-8.069738C4.052802-8.069738 4.016936-8.069738 3.921295-7.926276L.32279-2.343213V-1.996513H3.466999V-.908593C3.466999-.466252 3.443088-.3467 2.570361-.3467H2.331258V0C2.606227-.02391 3.550685-.02391 3.88543-.02391S5.176588-.02391 5.451557 0V-.3467H5.212453C4.351681-.3467 4.315816-.466252 4.315816-.908593V-1.996513H5.523288V-2.343213H4.315816V-7.782814ZM3.526775-6.850311V-2.343213H.621669L3.526775-6.850311Z"/><path id="rTWV_g0-0" d="M7.878456-2.749689C8.081694-2.749689 8.296887-2.749689 8.296887-2.988792S8.081694-3.227895 7.878456-3.227895H1.41071C1.207472-3.227895 .992279-3.227895 .992279-2.988792S1.207472-2.749689 1.41071-2.749689H7.878456Z"/></defs><g id="rTWV_page1"><path d="M23.152344-41.121092L26.51563-43.722662M56.30472-35.546922L59.66792-38.148422M89.46092-29.968722L92.82422-32.570322M122.61332-24.394522L125.97652-26.996122M155.76552-18.816422L159.12852-21.417922M84.98832-88.953122L81.62502-86.351522M118.14062-83.378922L114.77732-80.777322M151.29652-77.800822L147.93352-75.199222M184.44952-72.226522L181.08552-69.625022M217.60152-66.648422L214.23852-64.046922" stroke="#808080" fill="none" stroke-width=".19925" stroke-miterlimit="10"/><path d="M23.152324-41.12107L27.34373-40.41795M54.0703-65.039L58.2617-64.332M84.9883-88.9531L89.1797-88.2461M155.7655-18.8164L151.5745-19.5234M186.6835-42.73435L182.4925-43.43748M217.6015-66.6484L213.4105-67.3554" stroke="#808080" fill="none" stroke-width=".19925" stroke-miterlimit="10"/><path d="M23.152324-41.12107L155.7655-18.8164" stroke="#c5c5ce" fill="none" stroke-width=".3985" stroke-miterlimit="10"/><path d="M84.9883-88.9531L217.6015-66.6484" stroke="#c5c5ce" fill="none" stroke-width=".3985" stroke-miterlimit="10"/><path d="M23.152324-41.12107L84.9883-88.9531" stroke="#c5c5ce" fill="none" stroke-width=".3985" stroke-miterlimit="10"/><path d="M155.7655-18.8164L217.6015-66.6484" stroke="#c5c5ce" fill="none" stroke-width=".3985" stroke-miterlimit="10"/><g fill="#c5c5ce" transform="matrix(1 0 0 1 -35.4482 39.3718)"><use x="46.303595" y="-67.519598" xlink:href="#rTWV_g0-0"/><use x="55.602092" y="-67.519598" xlink:href="#rTWV_g1-50"/></g><g fill="#c5c5ce" transform="matrix(1 0 0 1 -2.2943 44.9479)"><use x="46.303595" y="-67.519598" xlink:href="#rTWV_g0-0"/><use x="55.602092" y="-67.519598" xlink:href="#rTWV_g1-49"/></g><g fill="#c5c5ce" transform="matrix(1 0 0 1 36.0893 49.8396)"><use x="46.303595" y="-67.519598" xlink:href="#rTWV_g1-48"/></g><g fill="#c5c5ce" transform="matrix(1 0 0 1 69.2434 55.4157)"><use x="46.303595" y="-67.519598" xlink:href="#rTWV_g1-49"/></g><g fill="#c5c5ce" transform="matrix(1 0 0 1 102.3974 60.99182)"><use x="46.303595" y="-67.519598" xlink:href="#rTWV_g1-50"/></g><g fill="#c5c5ce" transform="matrix(1 0 0 1 110.8274 62.62347)"><use x="46.303595" y="-67.519598" xlink:href="#rTWV_g0-0"/><use x="55.602092" y="-67.519598" xlink:href="#rTWV_g1-50"/></g><g fill="#c5c5ce" transform="matrix(1 0 0 1 144.3014 36.7309)"><use x="46.303595" y="-67.519598" xlink:href="#rTWV_g1-48"/></g><g fill="#c5c5ce" transform="matrix(1 0 0 1 175.2194 12.8151)"><use x="46.303595" y="-67.519598" xlink:href="#rTWV_g1-50"/></g><path d="M84.9883-179.9023L81.625-177.3003M118.1406-174.3283L114.7773-171.7263M151.2965-168.7503L147.9335-166.1483M184.4495-163.1753L181.0855-160.5743M217.6015-157.5973L214.2385-154.9963" stroke="#808080" fill="none" stroke-width=".19925" stroke-miterlimit="10"/><path d="M23.152324-132.0703L27.34373-131.3672M54.0703-155.9883L58.2617-155.2813M84.9883-179.9023L89.1797-179.1993" stroke="#808080" fill="none" stroke-width=".19925" stroke-miterlimit="10"/><path d="M84.9883-179.9023L217.6015-157.5973" stroke="#c5c5ce" fill="none" stroke-width=".3985" stroke-miterlimit="10"/><path d="M23.152324-132.0703L84.9883-179.9023" stroke="#c5c5ce" fill="none" stroke-width=".3985" stroke-miterlimit="10"/><path d="M23.152324-41.12107V-45.37498M54.0703-65.039V-69.289M84.9883-88.9531V-93.2031M23.152324-132.0703V-127.8203M54.0703-155.9883V-151.7343M84.9883-179.9023V-175.6523" stroke="#808080" fill="none" stroke-width=".19925" stroke-miterlimit="10"/><path d="M23.152324-48.703104L26.51561-51.30467M23.152324-67.6484L26.51561-70.25M23.152324-86.5976L26.51561-89.1992M23.152324-105.5429L26.51561-108.1445M23.152324-124.4922L26.51561-127.0937M84.9883-96.5312L81.625-93.9297M84.9883-115.4804L81.625-112.8789M84.9883-134.4297L81.625-131.8281M84.9883-153.3753L81.625-150.7733M84.9883-172.3243L81.625-169.7223" stroke="#808080" fill="none" stroke-width=".19925" stroke-miterlimit="10"/><path d="M23.152324-41.12107V-132.0703" stroke="#c5c5ce" fill="none" stroke-width=".3985" stroke-miterlimit="10"/><path d="M84.9883-88.9531V-179.9023" stroke="#c5c5ce" fill="none" stroke-width=".3985" stroke-miterlimit="10"/><g fill="#c5c5ce" transform="matrix(1 0 0 1 -42.40347 25.1016)"><use x="46.303595" y="-67.519598" xlink:href="#rTWV_g0-0"/><use x="55.602092" y="-67.519598" xlink:href="#rTWV_g1-52"/></g><g fill="#c5c5ce" transform="matrix(1 0 0 1 -42.40347 6.1538)"><use x="46.303595" y="-67.519598" xlink:href="#rTWV_g0-0"/><use x="55.602092" y="-67.519598" xlink:href="#rTWV_g1-50"/></g><g fill="#c5c5ce" transform="matrix(1 0 0 1 -33.105 -13.4622)"><use x="46.303595" y="-67.519598" xlink:href="#rTWV_g1-48"/></g><g fill="#c5c5ce" transform="matrix(1 0 0 1 -33.105 -32.4099)"><use x="46.303595" y="-67.519598" xlink:href="#rTWV_g1-50"/></g><g fill="#c5c5ce" transform="matrix(1 0 0 1 -33.105 -51.3574)"><use x="46.303595" y="-67.519598" xlink:href="#rTWV_g1-52"/></g><path d="M155.7655-18.8164V-23.0703M186.6835-42.73435V-46.98435M217.6015-66.6484V-70.9023" stroke="#808080" fill="none" stroke-width=".19925" stroke-miterlimit="10"/><path d="M217.6015-74.2265L214.2385-71.6289M217.6015-93.1758L214.2385-90.5742M217.6015-112.125L214.2385-109.5234M217.6015-131.0703L214.2385-128.4687M217.6015-150.0193L214.2385-147.4179" stroke="#808080" fill="none" stroke-width=".19925" stroke-miterlimit="10"/><path d="M217.6015-66.6484V-157.5973" stroke="#c5c5ce" fill="none" stroke-width=".3985" stroke-miterlimit="10"/><path d="M23.152324-41.12107V-45.37498M56.3047-35.5469V-39.79685M89.4609-29.9687V-34.2226M122.6133-24.3945V-28.6445M155.7655-18.8164V-23.0703" stroke="#808080" fill="none" stroke-width=".19925" stroke-miterlimit="10"/><path d="M23.152324-48.703104L27.34373-47.996073M23.152324-67.6484L27.34373-66.9453M23.152324-86.5976L27.34373-85.8906M23.152324-105.5429L27.34373-104.8398M23.152324-124.4922L27.34373-123.7851" stroke="#808080" fill="none" stroke-width=".19925" stroke-miterlimit="10"/><path d="M84.9883-88.9531V-93.2031M118.1406-83.3789V-87.6289M151.2965-77.8008V-82.0508M184.4495-72.2265V-76.4765M217.6015-66.6484V-70.9023M84.9883-179.9023V-175.6523M118.1406-174.3283V-170.0743M151.2965-168.7503V-164.5003M184.4495-163.1753V-158.9223M217.6015-157.5973V-153.3473" stroke="#808080" fill="none" stroke-width=".19925" stroke-miterlimit="10"/><path d="M84.9883-96.5312L89.1797-95.8281M84.9883-115.4804L89.1797-114.7734M84.9883-134.4297L89.1797-133.7226M84.9883-153.3753L89.1797-152.6723M84.9883-172.3243L89.1797-171.6173M217.6015-74.2265L213.4105-74.9336M217.6015-93.1758L213.4105-93.8828M217.6015-112.125L213.4105-112.8281M217.6015-131.0703L213.4105-131.7773M217.6015-150.0193L213.4105-150.7263" stroke="#808080" fill="none" stroke-width=".19925" stroke-miterlimit="10"/><path d="M126.9885-101.1367C132.5155-98.6289 138.0395-96.9101 143.5665-95.9804C146.1405-93.2383 148.7185-89.7031 151.2965-85.3789C145.7695-86.3086 140.2425-88.0273 134.7185-90.539C132.1405-94.8594 129.5665-98.3945 126.9885-101.1367Z" stroke="#4d4d7f" fill="none" stroke-width=".3985" stroke-miterlimit="1" clip-path="url(#rTWV_clip1)"/><path d="M143.5665-95.9804C149.0895-95.0508 154.6175-94.9101 160.1445-95.5625C162.7185-92.8164 165.2965-89.2851 167.8715-84.9609C162.3475-84.3125 156.8205-84.4531 151.2965-85.3789C148.7185-89.7031 146.1405-93.2383 143.5665-95.9804Z" stroke="#4d4d7f" fill="none" stroke-width=".3985" stroke-miterlimit="1" clip-path="url(#rTWV_clip1)"/><path d="M110.4101-111.0312C115.9375-106.9453 121.4648-103.6445 126.9885-101.1367C129.5665-98.3945 132.1405-94.8594 134.7185-90.539C129.1915-93.0469 123.6675-96.3437 118.1406-100.4297C115.5664-104.7539 112.9883-108.2851 110.4101-111.0312Z" stroke="#737359" fill="none" stroke-width=".3985" stroke-miterlimit="1" clip-path="url(#rTWV_clip1)"/><path d="M160.1445-95.5625C165.6675-96.2109 171.1955-97.6484 176.7185-99.8789C179.2965-97.1367 181.8715-93.6015 184.4495-89.2773C178.9215-87.0508 173.3985-85.6094 167.8715-84.9609C165.2965-89.2851 162.7185-92.8164 160.1445-95.5625Z" stroke="#737359" fill="none" stroke-width=".3985" stroke-miterlimit="1" clip-path="url(#rTWV_clip1)"/><path d="M93.8359-125.6601C99.3594-119.9961 104.8867-115.1172 110.4101-111.0312C112.9883-108.2851 115.5664-104.7539 118.1406-100.4297C112.6172-104.5195 107.0898-109.3945 101.5625-115.0625C98.9883-119.3828 96.4101-122.9179 93.8359-125.6601Z" stroke="#c0c00c" fill="none" stroke-width=".3985" stroke-miterlimit="1" clip-path="url(#rTWV_clip1)"/><path d="M119.2578-107C124.7855-104.4922 130.3085-102.7734 135.8355-101.8437C138.4145-100.6797 140.9885-98.7265 143.5665-95.9804C138.0395-96.9101 132.5155-98.6289 126.9885-101.1367C124.4145-103.8828 121.8359-105.8359 119.2578-107Z" stroke="#c0c00c" fill="none" stroke-width=".3985" stroke-miterlimit="1" clip-path="url(#rTWV_clip1)"/><path d="M176.7185-99.8789C182.2465-102.1054 187.7695-105.125 193.2965-108.9336C195.8745-106.1875 198.4495-102.6562 201.0275-98.332C195.4995-94.5234 189.9765-91.5078 184.4495-89.2773C181.8715-93.6015 179.2965-97.1367 176.7185-99.8789Z" stroke="#c0c00c" fill="none" stroke-width=".3985" stroke-miterlimit="1" clip-path="url(#rTWV_clip1)"/><path d="M135.8355-101.8437C141.3635-100.914 146.8865-100.7734 152.4145-101.4258C154.9885-100.2617 157.5665-98.3047 160.1445-95.5625C154.6175-94.9101 149.0895-95.0508 143.5665-95.9804C140.9885-98.7265 138.4145-100.6797 135.8355-101.8437Z" stroke="#c0c00c" fill="none" stroke-width=".3985" stroke-miterlimit="1" clip-path="url(#rTWV_clip1)"/><path d="M102.6836-116.8945C108.207-112.8086 113.7344-109.5078 119.2578-107C121.8359-105.8359 124.4145-103.8828 126.9885-101.1367C121.4648-103.6445 115.9375-106.9453 110.4101-111.0312C107.8359-113.7734 105.2578-115.7304 102.6836-116.8945Z" stroke="#ccbf00" fill="none" stroke-width=".3985" stroke-miterlimit="1" clip-path="url(#rTWV_clip1)"/><path d="M72.8828-42.70701C78.4101-40.1992 83.9336-38.4765 89.4609-37.5508C92.0351-45.85935 94.6133-53.37889 97.1875-60.1054C91.664-61.0351 86.1367-62.7539 80.6133-65.2656C78.0351-58.53514 75.4609-51.0156 72.8828-42.70701Z" stroke="#4d4d7f" fill="none" stroke-width=".3985" stroke-miterlimit="1" clip-path="url(#rTWV_clip1)"/><path d="M89.4609-37.5508C94.9844-36.6211 100.5117-36.4804 106.0351-37.1289C108.6133-45.43748 111.1914-52.95701 113.7656-59.6875C108.2422-59.039 102.7148-59.1797 97.1875-60.1054C94.6133-53.37889 92.0351-45.85935 89.4609-37.5508Z" stroke="#4d4d7f" fill="none" stroke-width=".3985" stroke-miterlimit="1" clip-path="url(#rTWV_clip1)"/><path d="M77.2578-145.0273C82.7851-137.7851 88.3086-131.3281 93.8359-125.6601C96.4101-122.9179 98.9883-119.3828 101.5625-115.0625C96.039-120.7265 90.5117-127.1836 84.9883-134.4297C82.4101-138.75 79.8359-142.2851 77.2578-145.0273Z" stroke="#c90" fill="none" stroke-width=".3985" stroke-miterlimit="1" clip-path="url(#rTWV_clip1)"/><path d="M56.3047-52.59764C61.832-48.511698 67.3554-45.21482 72.8828-42.70701C75.4609-51.0156 78.0351-58.53514 80.6133-65.2656C75.0859-67.7734 69.5625-71.0703 64.0351-75.1562C61.457-68.4258 58.8828-60.9062 56.3047-52.59764Z" stroke="#737359" fill="none" stroke-width=".3985" stroke-miterlimit="1" clip-path="url(#rTWV_clip1)"/><path d="M152.4145-101.4258C157.9375-102.0742 163.4645-103.5117 168.9885-105.7422C171.5665-104.5781 174.1445-102.6211 176.7185-99.8789C171.1955-97.6484 165.6675-96.2109 160.1445-95.5625C157.5665-98.3047 154.9885-100.2617 152.4145-101.4258Z" stroke="#ccbf00" fill="none" stroke-width=".3985" stroke-miterlimit="1" clip-path="url(#rTWV_clip1)"/><path d="M86.1054-131.5234C91.6328-125.8594 97.1562-120.9804 102.6836-116.8945C105.2578-115.7304 107.8359-113.7734 110.4101-111.0312C104.8867-115.1172 99.3594-119.9961 93.8359-125.6601C91.2578-128.4062 88.6836-130.3594 86.1054-131.5234Z" stroke="#c90" fill="none" stroke-width=".3985" stroke-miterlimit="1" clip-path="url(#rTWV_clip1)"/><path d="M106.0351-37.1289C111.5625-37.7773 117.0859-39.21873 122.6133-41.44529C125.1915-49.75779 127.7655-57.27342 130.3435-64.0039C124.8165-61.7773 119.2929-60.3359 113.7656-59.6875C111.1914-52.95701 108.6133-45.43748 106.0351-37.1289Z" stroke="#737359" fill="none" stroke-width=".3985" stroke-miterlimit="1" clip-path="url(#rTWV_clip1)"/><path d="M111.5312-108.1289C117.0547-105.6172 122.582-103.8984 128.1055-102.9726C130.6835-103.3867 133.2575-103.0078 135.8355-101.8437C130.3085-102.7734 124.7855-104.4922 119.2578-107C116.6836-108.164 114.1054-108.5429 111.5312-108.1289Z" stroke="#ccac00" fill="none" stroke-width=".3985" stroke-miterlimit="1" clip-path="url(#rTWV_clip1)"/><path d="M128.1055-102.9726C133.6325-102.0429 139.1565-101.9023 144.6835-102.5508C147.2615-102.9648 149.8355-102.5898 152.4145-101.4258C146.8865-100.7734 141.3635-100.914 135.8355-101.8437C133.2575-103.0078 130.6835-103.3867 128.1055-102.9726Z" stroke="#ccac00" fill="none" stroke-width=".3985" stroke-miterlimit="1" clip-path="url(#rTWV_clip1)"/><path d="M80.6133-65.2656C86.1367-62.7539 91.664-61.0351 97.1875-60.1054C99.7656-66.8359 102.3437-72.7773 104.9179-77.9297C99.3945-78.8594 93.8672-80.5781 88.3398-83.0859C85.7656-77.9336 83.1875-71.9922 80.6133-65.2656Z" stroke="#c0c00c" fill="none" stroke-width=".3985" stroke-miterlimit="1" clip-path="url(#rTWV_clip1)"/><path d="M39.7304-67.2304C45.2539-61.5625 50.7812-56.68748 56.3047-52.59764C58.8828-60.9062 61.457-68.4258 64.0351-75.1562C58.5078-79.2461 52.9844-84.1211 47.457-89.789C44.8828-83.0586 42.3047-75.539 39.7304-67.2304Z" stroke="#c0c00c" fill="none" stroke-width=".3985" stroke-miterlimit="1" clip-path="url(#rTWV_clip1)"/><path d="M94.9531-118.0195C100.4765-113.9336 106.0039-110.6367 111.5312-108.1289C114.1054-108.5429 116.6836-108.164 119.2578-107C113.7344-109.5078 108.207-112.8086 102.6836-116.8945C100.1054-118.0586 97.5273-118.4336 94.9531-118.0195Z" stroke="#c90" fill="none" stroke-width=".3985" stroke-miterlimit="1" clip-path="url(#rTWV_clip1)"/><path d="M97.1875-60.1054C102.7148-59.1797 108.2422-59.039 113.7656-59.6875C116.3437-66.4179 118.9179-72.3594 121.4961-77.5078C115.9687-76.8594 110.4453-77 104.9179-77.9297C102.3437-72.7773 99.7656-66.8359 97.1875-60.1054Z" stroke="#c0c00c" fill="none" stroke-width=".3985" stroke-miterlimit="1" clip-path="url(#rTWV_clip1)"/><path d="M193.2965-108.9336C198.8245-112.7422 204.3475-117.3359 209.8745-122.7226C212.4495-119.9804 215.0275-116.4453 217.6015-112.125C212.0785-106.7383 206.5505-102.1406 201.0275-98.332C198.4495-102.6562 195.8745-106.1875 193.2965-108.9336Z" stroke="#c90" fill="none" stroke-width=".3985" stroke-miterlimit="1" clip-path="url(#rTWV_clip1)"/><path d="M168.9885-105.7422C174.5155-107.9726 180.0425-110.9883 185.5665-114.7969C188.1445-113.6328 190.7185-111.6758 193.2965-108.9336C187.7695-105.125 182.2465-102.1054 176.7185-99.8789C174.1445-102.6211 171.5665-104.5781 168.9885-105.7422Z" stroke="#c90" fill="none" stroke-width=".3985" stroke-miterlimit="1" clip-path="url(#rTWV_clip1)"/><path d="M64.0351-75.1562C69.5625-71.0703 75.0859-67.7734 80.6133-65.2656C83.1875-71.9922 85.7656-77.9336 88.3398-83.0859C82.8164-85.5937 77.289-88.8906 71.7656-92.9804C69.1875-87.8281 66.6133-81.8867 64.0351-75.1562Z" stroke="#ccbf00" fill="none" stroke-width=".3985" stroke-miterlimit="1" clip-path="url(#rTWV_clip1)"/><path d="M144.6835-102.5508C150.2105-103.1992 155.7345-104.6406 161.2615-106.8672C163.8355-107.2812 166.4145-106.9062 168.9885-105.7422C163.4645-103.5117 157.9375-102.0742 152.4145-101.4258C149.8355-102.5898 147.2615-102.9648 144.6835-102.5508Z" stroke="#c90" fill="none" stroke-width=".3985" stroke-miterlimit="1" clip-path="url(#rTWV_clip1)"/><path d="M103.8008-104.5156C109.3242-102.0078 114.8515-100.289 120.3789-99.3594C122.9531-101.3515 125.5315-102.5586 128.1055-102.9726C122.582-103.8984 117.0547-105.6172 111.5312-108.1289C108.9531-107.7148 106.375-106.5117 103.8008-104.5156Z" stroke="#c90" fill="none" stroke-width=".3985" stroke-miterlimit="1" clip-path="url(#rTWV_clip1)"/><path d="M88.3398-83.0859C93.8672-80.5781 99.3945-78.8594 104.9179-77.9297C107.4961-83.0781 110.0703-87.4414 112.6484-91.0117C107.1211-91.9414 101.5976-93.6601 96.0703-96.1679C93.4961-92.5976 90.9179-88.2344 88.3398-83.0859Z" stroke="#ccac00" fill="none" stroke-width=".3985" stroke-miterlimit="1" clip-path="url(#rTWV_clip1)"/><path d="M120.3789-99.3594C125.9025-98.4297 131.4295-98.2929 136.9535-98.9414C139.5315-100.9336 142.1055-102.1367 144.6835-102.5508C139.1565-101.9023 133.6325-102.0429 128.1055-102.9726C125.5315-102.5586 122.9531-101.3515 120.3789-99.3594Z" stroke="#c90" fill="none" stroke-width=".3985" stroke-miterlimit="1" clip-path="url(#rTWV_clip1)"/><path d="M122.6133-41.44529C128.1405-43.67576 133.6645-46.69529 139.1915-50.49998C141.7655-58.8086 144.3435-66.3281 146.9215-73.0586C141.3945-69.25 135.8675-66.2344 130.3435-64.0039C127.7655-57.27342 125.1915-49.75779 122.6133-41.44529Z" stroke="#c0c00c" fill="none" stroke-width=".3985" stroke-miterlimit="1" clip-path="url(#rTWV_clip1)"/><path d="M113.7656-59.6875C119.2929-60.3359 124.8165-61.7773 130.3435-64.0039C132.9175-70.7344 135.4965-76.6758 138.0745-81.8281C132.5465-79.5976 127.0195-78.1601 121.4961-77.5078C118.9179-72.3594 116.3437-66.4179 113.7656-59.6875Z" stroke="#ccbf00" fill="none" stroke-width=".3985" stroke-miterlimit="1" clip-path="url(#rTWV_clip1)"/><path d="M104.9179-77.9297C110.4453-77 115.9687-76.8594 121.4961-77.5078C124.0705-82.6601 126.6485-87.0195 129.2265-90.5937C123.6995-89.9453 118.1719-90.082 112.6484-91.0117C110.0703-87.4414 107.4961-83.0781 104.9179-77.9297Z" stroke="#ccac00" fill="none" stroke-width=".3985" stroke-miterlimit="1" clip-path="url(#rTWV_clip1)"/><path d="M96.0703-96.1679C101.5976-93.6601 107.1211-91.9414 112.6484-91.0117C115.2226-94.5859 117.8008-97.3672 120.3789-99.3594C114.8515-100.289 109.3242-102.0078 103.8008-104.5156C101.2226-102.5234 98.6484-99.7422 96.0703-96.1679Z" stroke="#c90" fill="none" stroke-width=".3985" stroke-miterlimit="1" clip-path="url(#rTWV_clip1)"/><path d="M87.2226-114.4101C92.75-110.3242 98.2734-107.0234 103.8008-104.5156C106.375-106.5117 108.9531-107.7148 111.5312-108.1289C106.0039-110.6367 100.4765-113.9336 94.9531-118.0195C92.375-117.6054 89.8008-116.4023 87.2226-114.4101Z" stroke="#cc8600" fill="none" stroke-width=".3985" stroke-miterlimit="1" clip-path="url(#rTWV_clip1)"/><path d="M78.375-132.6523C83.9023-126.9844 89.4258-122.1094 94.9531-118.0195C97.5273-118.4336 100.1054-118.0586 102.6836-116.8945C97.1562-120.9804 91.6328-125.8594 86.1054-131.5234C83.5273-132.6914 80.9531-133.0664 78.375-132.6523Z" stroke="#cc7200" fill="none" stroke-width=".3985" stroke-miterlimit="1" clip-path="url(#rTWV_clip1)"/><path d="M69.5273-150.8903C75.0547-143.6484 80.5781-137.1914 86.1054-131.5234C88.6836-130.3594 91.2578-128.4062 93.8359-125.6601C88.3086-131.3281 82.7851-137.7851 77.2578-145.0273C74.6797-147.7734 72.1054-149.7263 69.5273-150.8903Z" stroke="#cc5f00" fill="none" stroke-width=".3985" stroke-miterlimit="1" clip-path="url(#rTWV_clip1)"/><path d="M112.6484-91.0117C118.1719-90.082 123.6995-89.9453 129.2265-90.5937C131.8005-94.164 134.3785-96.9492 136.9535-98.9414C131.4295-98.2929 125.9025-98.4297 120.3789-99.3594C117.8008-97.3672 115.2226-94.5859 112.6484-91.0117Z" stroke="#c90" fill="none" stroke-width=".3985" stroke-miterlimit="1" clip-path="url(#rTWV_clip1)"/><path d="M71.7656-92.9804C77.289-88.8906 82.8164-85.5937 88.3398-83.0859C90.9179-88.2344 93.4961-92.5976 96.0703-96.1679C90.5469-98.6797 85.0195-101.9765 79.4922-106.0625C76.9179-102.4922 74.3398-98.1289 71.7656-92.9804Z" stroke="#c90" fill="none" stroke-width=".3985" stroke-miterlimit="1" clip-path="url(#rTWV_clip1)"/><path d="M47.457-89.789C52.9844-84.1211 58.5078-79.2461 64.0351-75.1562C66.6133-81.8867 69.1875-87.8281 71.7656-92.9804C66.2383-97.0664 60.7148-101.9414 55.1875-107.6094C52.6094-102.457 50.0351-96.5195 47.457-89.789Z" stroke="#c90" fill="none" stroke-width=".3985" stroke-miterlimit="1" clip-path="url(#rTWV_clip1)"/><path d="M79.4922-106.0625C85.0195-101.9765 90.5469-98.6797 96.0703-96.1679C98.6484-99.7422 101.2226-102.5234 103.8008-104.5156C98.2734-107.0234 92.75-110.3242 87.2226-114.4101C84.6484-112.4179 82.0703-109.6367 79.4922-106.0625Z" stroke="#cc8600" fill="none" stroke-width=".3985" stroke-miterlimit="1" clip-path="url(#rTWV_clip1)"/><path d="M136.9535-98.9414C142.4805-99.5898 148.0035-101.0312 153.5315-103.2578C156.1095-105.25 158.6835-106.4531 161.2615-106.8672C155.7345-104.6406 150.2105-103.1992 144.6835-102.5508C142.1055-102.1367 139.5315-100.9336 136.9535-98.9414Z" stroke="#cc8600" fill="none" stroke-width=".3985" stroke-miterlimit="1" clip-path="url(#rTWV_clip1)"/><path d="M23.152324-86.5976C28.67576-79.3515 34.2031-72.8945 39.7304-67.2304C42.3047-75.539 44.8828-83.0586 47.457-89.789C41.9336-95.4531 36.4062-101.9101 30.88279-109.1562C28.30467-102.4258 25.72654-94.9062 23.152324-86.5976Z" stroke="#c90" fill="none" stroke-width=".3985" stroke-miterlimit="1" clip-path="url(#rTWV_clip1)"/><path d="M121.4961-77.5078C127.0195-78.1601 132.5465-79.5976 138.0745-81.8281C140.6485-86.9765 143.2265-91.3398 145.8005-94.9101C140.2775-92.6836 134.7495-91.2422 129.2265-90.5937C126.6485-87.0195 124.0705-82.6601 121.4961-77.5078Z" stroke="#c90" fill="none" stroke-width=".3985" stroke-miterlimit="1" clip-path="url(#rTWV_clip1)"/><path d="M129.2265-90.5937C134.7495-91.2422 140.2775-92.6836 145.8005-94.9101C148.3785-98.4844 150.9535-101.2656 153.5315-103.2578C148.0035-101.0312 142.4805-99.5898 136.9535-98.9414C134.3785-96.9492 131.8005-94.164 129.2265-90.5937Z" stroke="#cc8600" fill="none" stroke-width=".3985" stroke-miterlimit="1" clip-path="url(#rTWV_clip1)"/><path d="M161.2615-106.8672C166.7855-109.0976 172.3125-112.1172 177.8355-115.9219C180.4145-116.3359 182.9925-115.9609 185.5665-114.7969C180.0425-110.9883 174.5155-107.9726 168.9885-105.7422C166.4145-106.9062 163.8355-107.2812 161.2615-106.8672Z" stroke="#cc7200" fill="none" stroke-width=".3985" stroke-miterlimit="1" clip-path="url(#rTWV_clip1)"/><path d="M70.6445-129.039C76.1719-123.375 81.6992-118.4961 87.2226-114.4101C89.8008-116.4023 92.375-117.6054 94.9531-118.0195C89.4258-122.1094 83.9023-126.9844 78.375-132.6523C75.8008-132.2383 73.2226-131.0351 70.6445-129.039Z" stroke="#cc5f00" fill="none" stroke-width=".3985" stroke-miterlimit="1" clip-path="url(#rTWV_clip1)"/><path d="M55.1875-107.6094C60.7148-101.9414 66.2383-97.0664 71.7656-92.9804C74.3398-98.1289 76.9179-102.4922 79.4922-106.0625C73.9687-110.1484 68.4414-115.0273 62.9179-120.6914C60.3398-117.1211 57.7656-112.7617 55.1875-107.6094Z" stroke="#cc7200" fill="none" stroke-width=".3985" stroke-miterlimit="1" clip-path="url(#rTWV_clip1)"/><path d="M130.3435-64.0039C135.8675-66.2344 141.3945-69.25 146.9215-73.0586C149.4965-79.789 152.0745-85.7304 154.6485-90.8789C149.1245-87.0742 143.5975-84.0547 138.0745-81.8281C135.4965-76.6758 132.9175-70.7344 130.3435-64.0039Z" stroke="#c90" fill="none" stroke-width=".3985" stroke-miterlimit="1" clip-path="url(#rTWV_clip1)"/><path d="M185.5665-114.7969C191.0935-118.6054 196.6175-123.1992 202.1445-128.5859C204.7185-127.4219 207.2965-125.4687 209.8745-122.7226C204.3475-117.3359 198.8245-112.7422 193.2965-108.9336C190.7185-111.6758 188.1445-113.6328 185.5665-114.7969Z" stroke="#cc5f00" fill="none" stroke-width=".3985" stroke-miterlimit="1" clip-path="url(#rTWV_clip1)"/><path d="M62.9179-120.6914C68.4414-115.0273 73.9687-110.1484 79.4922-106.0625C82.0703-109.6367 84.6484-112.4179 87.2226-114.4101C81.6992-118.4961 76.1719-123.375 70.6445-129.039C68.0703-127.0469 65.4922-124.2656 62.9179-120.6914Z" stroke="#cc5f00" fill="none" stroke-width=".3985" stroke-miterlimit="1" clip-path="url(#rTWV_clip1)"/><path d="M61.7969-152.0193C67.3242-144.7734 72.8515-138.3164 78.375-132.6523C80.9531-133.0664 83.5273-132.6914 86.1054-131.5234C80.5781-137.1914 75.0547-143.6484 69.5273-150.8903C66.9531-152.0583 64.375-152.4333 61.7969-152.0193Z" stroke="#cc3900" fill="none" stroke-width=".3985" stroke-miterlimit="1" clip-path="url(#rTWV_clip1)"/><path d="M139.1915-50.49998C144.7145-54.30857 150.2425-58.9062 155.7655-64.2929C158.3435-72.6015 160.9215-80.1211 163.4965-86.8515C157.9725-81.4648 152.4455-76.8672 146.9215-73.0586C144.3435-66.3281 141.7655-58.8086 139.1915-50.49998Z" stroke="#c90" fill="none" stroke-width=".3985" stroke-miterlimit="1" clip-path="url(#rTWV_clip1)"/><path d="M153.5315-103.2578C159.0585-105.4883 164.5825-108.5039 170.1095-112.3125C172.6835-114.3047 175.2615-115.5078 177.8355-115.9219C172.3125-112.1172 166.7855-109.0976 161.2615-106.8672C158.6835-106.4531 156.1095-105.25 153.5315-103.2578Z" stroke="#cc5f00" fill="none" stroke-width=".3985" stroke-miterlimit="1" clip-path="url(#rTWV_clip1)"/><path d="M30.88279-109.1562C36.4062-101.9101 41.9336-95.4531 47.457-89.789C50.0351-96.5195 52.6094-102.457 55.1875-107.6094C49.6601-113.2734 44.1367-119.7304 38.6094-126.9765C36.0351-121.8242 33.457-115.8867 30.88279-109.1562Z" stroke="#cc5f00" fill="none" stroke-width=".3985" stroke-miterlimit="1" clip-path="url(#rTWV_clip1)"/><path d="M138.0745-81.8281C143.5975-84.0547 149.1245-87.0742 154.6485-90.8789C157.2265-96.0312 159.8005-100.3945 162.3785-103.9648C156.8515-100.1562 151.3285-97.1406 145.8005-94.9101C143.2265-91.3398 140.6485-86.9765 138.0745-81.8281Z" stroke="#cc7200" fill="none" stroke-width=".3985" stroke-miterlimit="1" clip-path="url(#rTWV_clip1)"/><path d="M145.8005-94.9101C151.3285-97.1406 156.8515-100.1562 162.3785-103.9648C164.9575-107.5351 167.5315-110.3203 170.1095-112.3125C164.5825-108.5039 159.0585-105.4883 153.5315-103.2578C150.9535-101.2656 148.3785-98.4844 145.8005-94.9101Z" stroke="#cc5f00" fill="none" stroke-width=".3985" stroke-miterlimit="1" clip-path="url(#rTWV_clip1)"/><path d="M54.0703-148.4062C59.5937-141.164 65.1211-134.707 70.6445-129.039C73.2226-131.0351 75.8008-132.2383 78.375-132.6523C72.8515-138.3164 67.3242-144.7734 61.7969-152.0193C59.2226-151.6053 56.6445-150.4023 54.0703-148.4062Z" stroke="#cc2600" fill="none" stroke-width=".3985" stroke-miterlimit="1" clip-path="url(#rTWV_clip1)"/><path d="M38.6094-126.9765C44.1367-119.7304 49.6601-113.2734 55.1875-107.6094C57.7656-112.7617 60.3398-117.1211 62.9179-120.6914C57.3906-126.3594 51.8672-132.8164 46.3398-140.0625C43.7617-136.4883 41.1875-132.1289 38.6094-126.9765Z" stroke="#cc3900" fill="none" stroke-width=".3985" stroke-miterlimit="1" clip-path="url(#rTWV_clip1)"/><path d="M177.8355-115.9219C183.3635-119.7304 188.8905-124.3281 194.4145-129.7148C196.9925-130.1289 199.5665-129.7539 202.1445-128.5859C196.6175-123.1992 191.0935-118.6054 185.5665-114.7969C182.9925-115.9609 180.4145-116.3359 177.8355-115.9219Z" stroke="#cc3900" fill="none" stroke-width=".3985" stroke-miterlimit="1" clip-path="url(#rTWV_clip1)"/><path d="M46.3398-140.0625C51.8672-132.8164 57.3906-126.3594 62.9179-120.6914C65.4922-124.2656 68.0703-127.0469 70.6445-129.039C65.1211-134.707 59.5937-141.164 54.0703-148.4062C51.4922-146.414 48.9179-143.6328 46.3398-140.0625Z" stroke="#cc2600" fill="none" stroke-width=".3985" stroke-miterlimit="1" clip-path="url(#rTWV_clip1)"/><path d="M146.9215-73.0586C152.4455-76.8672 157.9725-81.4648 163.4965-86.8515C166.0745-93.582 168.6485-99.5195 171.2265-104.6719C165.6995-99.2851 160.1755-94.6875 154.6485-90.8789C152.0745-85.7304 149.4965-79.789 146.9215-73.0586Z" stroke="#cc5f00" fill="none" stroke-width=".3985" stroke-miterlimit="1" clip-path="url(#rTWV_clip1)"/><path d="M170.1095-112.3125C175.6325-116.1211 181.1605-120.7187 186.6835-126.1054C189.2615-128.0976 191.8395-129.3008 194.4145-129.7148C188.8905-124.3281 183.3635-119.7304 177.8355-115.9219C175.2615-115.5078 172.6835-114.3047 170.1095-112.3125Z" stroke="#cc2600" fill="none" stroke-width=".3985" stroke-miterlimit="1" clip-path="url(#rTWV_clip1)"/><path d="M154.6485-90.8789C160.1755-94.6875 165.6995-99.2851 171.2265-104.6719C173.8045-109.8242 176.3785-114.1836 178.9575-117.7578C173.4295-112.3711 167.9065-107.7734 162.3785-103.9648C159.8005-100.3945 157.2265-96.0312 154.6485-90.8789Z" stroke="#cc3900" fill="none" stroke-width=".3985" stroke-miterlimit="1" clip-path="url(#rTWV_clip1)"/><path d="M162.3785-103.9648C167.9065-107.7734 173.4295-112.3711 178.9575-117.7578C181.5315-121.3281 184.1095-124.1094 186.6835-126.1054C181.1605-120.7187 175.6325-116.1211 170.1095-112.3125C167.5315-110.3203 164.9575-107.5351 162.3785-103.9648Z" stroke="#cc2600" fill="none" stroke-width=".3985" stroke-miterlimit="1" clip-path="url(#rTWV_clip1)"/></g></svg>
