<svg xmlns="http://www.w3.org/2000/svg" xmlns:xlink="http://www.w3.org/1999/xlink" version="1.1" width="5.431279em" height="2.700840em" viewBox="0 -17.562498 64.689269 32.16837" style="vertical-align:-1.226302em"><defs><path id="Adjm_g6-50" d="M2.247572-1.625903C2.375093-1.745455 2.709838-2.008468 2.83736-2.12005C3.331507-2.574346 3.801743-3.012702 3.801743-3.737983C3.801743-4.686426 3.004732-5.300125 2.008468-5.300125C1.052055-5.300125 .422416-4.574844 .422416-3.865504C.422416-3.474969 .73325-3.419178 .844832-3.419178C1.012204-3.419178 1.259278-3.53873 1.259278-3.841594C1.259278-4.25604 .860772-4.25604 .765131-4.25604C.996264-4.837858 1.530262-5.037111 1.920797-5.037111C2.662017-5.037111 3.044583-4.407472 3.044583-3.737983C3.044583-2.909091 2.462765-2.303362 1.522291-1.338979L.518057-.302864C.422416-.215193 .422416-.199253 .422416 0H3.57061L3.801743-1.42665H3.55467C3.53076-1.267248 3.466999-.868742 3.371357-.71731C3.323537-.653549 2.717808-.653549 2.590286-.653549H1.171606L2.247572-1.625903Z"/><path id="Adjm_g5-25" d="M3.096389-4.507098H4.447323C4.124533-3.16812 3.921295-2.295392 3.921295-1.338979C3.921295-1.171606 3.921295 .119552 4.411457 .119552C4.662516 .119552 4.877709-.107597 4.877709-.310834C4.877709-.37061 4.877709-.394521 4.794022-.573848C4.471233-1.398755 4.471233-2.426899 4.471233-2.510585C4.471233-2.582316 4.471233-3.431133 4.722291-4.507098H6.06127C6.216687-4.507098 6.611208-4.507098 6.611208-4.889664C6.611208-5.152677 6.38406-5.152677 6.168867-5.152677H2.235616C1.960648-5.152677 1.554172-5.152677 1.004234-4.566874C.6934-4.220174 .310834-3.58655 .310834-3.514819S.37061-3.419178 .442341-3.419178C.526027-3.419178 .537983-3.455044 .597758-3.526775C1.219427-4.507098 1.841096-4.507098 2.139975-4.507098H2.82142C2.558406-3.610461 2.259527-2.570361 1.279203-.478207C1.183562-.286924 1.183562-.263014 1.183562-.191283C1.183562 .059776 1.398755 .119552 1.506351 .119552C1.853051 .119552 1.948692-.191283 2.092154-.6934C2.283437-1.303113 2.283437-1.327024 2.402989-1.80523L3.096389-4.507098Z"/><path id="Adjm_g5-107" d="M3.359402-7.998007C3.371357-8.045828 3.395268-8.117559 3.395268-8.177335C3.395268-8.296887 3.275716-8.296887 3.251806-8.296887C3.239851-8.296887 2.809465-8.261021 2.594271-8.237111C2.391034-8.225156 2.211706-8.201245 1.996513-8.18929C1.709589-8.16538 1.625903-8.153425 1.625903-7.938232C1.625903-7.81868 1.745455-7.81868 1.865006-7.81868C2.47472-7.81868 2.47472-7.711083 2.47472-7.591532C2.47472-7.543711 2.47472-7.519801 2.414944-7.304608L.705355-.466252C.657534-.286924 .657534-.263014 .657534-.191283C.657534 .071731 .860772 .119552 .980324 .119552C1.315068 .119552 1.3868-.143462 1.482441-.514072L2.044334-2.749689C2.905106-2.654047 3.419178-2.295392 3.419178-1.721544C3.419178-1.649813 3.419178-1.601993 3.383313-1.422665C3.335492-1.243337 3.335492-1.099875 3.335492-1.0401C3.335492-.3467 3.789788 .119552 4.399502 .119552C4.94944 .119552 5.236364-.382565 5.332005-.549938C5.583064-.992279 5.738481-1.661768 5.738481-1.709589C5.738481-1.769365 5.69066-1.817186 5.618929-1.817186C5.511333-1.817186 5.499377-1.769365 5.451557-1.578082C5.284184-.956413 5.033126-.119552 4.423412-.119552C4.184309-.119552 4.028892-.239103 4.028892-.6934C4.028892-.920548 4.076712-1.183562 4.124533-1.362889C4.172354-1.578082 4.172354-1.590037 4.172354-1.733499C4.172354-2.438854 3.53873-2.833375 2.438854-2.976837C2.86924-3.239851 3.299626-3.706102 3.466999-3.88543C4.148443-4.65056 4.614695-5.033126 5.164633-5.033126C5.439601-5.033126 5.511333-4.961395 5.595019-4.889664C5.152677-4.841843 4.985305-4.531009 4.985305-4.291905C4.985305-4.004981 5.212453-3.90934 5.379826-3.90934C5.702615-3.90934 5.989539-4.184309 5.989539-4.566874C5.989539-4.913574 5.71457-5.272229 5.176588-5.272229C4.519054-5.272229 3.981071-4.805978 3.132254-3.849564C3.012702-3.706102 2.570361-3.251806 2.12802-3.084433L3.359402-7.998007Z"/><path id="Adjm_g7-49" d="M3.443088-7.663263C3.443088-7.938232 3.443088-7.950187 3.203985-7.950187C2.917061-7.627397 2.319303-7.185056 1.08792-7.185056V-6.838356C1.362889-6.838356 1.960648-6.838356 2.618182-7.149191V-.920548C2.618182-.490162 2.582316-.3467 1.530262-.3467H1.159651V0C1.482441-.02391 2.642092-.02391 3.036613-.02391S4.578829-.02391 4.901619 0V-.3467H4.531009C3.478954-.3467 3.443088-.490162 3.443088-.920548V-7.663263Z"/><path id="Adjm_g7-54" d="M1.470486-4.160399C1.470486-7.185056 2.940971-7.663263 3.58655-7.663263C4.016936-7.663263 4.447323-7.531756 4.674471-7.173101C4.531009-7.173101 4.076712-7.173101 4.076712-6.682939C4.076712-6.419925 4.25604-6.192777 4.566874-6.192777C4.865753-6.192777 5.068991-6.372105 5.068991-6.718804C5.068991-7.340473 4.614695-7.950187 3.574595-7.950187C2.068244-7.950187 .490162-6.40797 .490162-3.777833C.490162-.490162 1.924782 .251059 2.940971 .251059C4.244085 .251059 5.355915-.884682 5.355915-2.438854C5.355915-4.028892 4.244085-5.092902 3.048568-5.092902C1.984558-5.092902 1.590037-4.172354 1.470486-3.837609V-4.160399ZM2.940971-.071731C2.187796-.071731 1.829141-.74122 1.721544-.992279C1.613948-1.303113 1.494396-1.888917 1.494396-2.725778C1.494396-3.670237 1.924782-4.853798 3.000747-4.853798C3.658281-4.853798 4.004981-4.411457 4.184309-4.004981C4.375592-3.56264 4.375592-2.964882 4.375592-2.450809C4.375592-1.841096 4.375592-1.303113 4.148443-.848817C3.849564-.274969 3.419178-.071731 2.940971-.071731Z"/><path id="Adjm_g7-61" d="M8.069738-3.873474C8.237111-3.873474 8.452304-3.873474 8.452304-4.088667C8.452304-4.315816 8.249066-4.315816 8.069738-4.315816H1.028144C.860772-4.315816 .645579-4.315816 .645579-4.100623C.645579-3.873474 .848817-3.873474 1.028144-3.873474H8.069738ZM8.069738-1.649813C8.237111-1.649813 8.452304-1.649813 8.452304-1.865006C8.452304-2.092154 8.249066-2.092154 8.069738-2.092154H1.028144C.860772-2.092154 .645579-2.092154 .645579-1.876961C.645579-1.649813 .848817-1.649813 1.028144-1.649813H8.069738Z"/><path id="Adjm_g0-78" d="M.892653-4.742217V-.852802C.892653-.430386 .828892-.286924 .422416-.278954C.334745-.278954 .199253-.270984 .199253-.143462C.199253 0 .326775 0 .470237 0H1.705604C1.849066 0 1.968618 0 1.968618-.143462C1.968618-.270984 1.841096-.278954 1.729514-.278954C1.291158-.286924 1.227397-.454296 1.227397-.868742V-4.519054L4.670486 .03188C4.742217 .127522 4.782067 .151432 4.837858 .151432C4.97335 .151432 4.97335 .02391 4.97335-.111582V-4.614695C4.97335-5.061021 5.045081-5.172603 5.411706-5.180573C5.459527-5.180573 5.595019-5.188543 5.595019-5.316065C5.595019-5.459527 5.475467-5.459527 5.332005-5.459527H4.168369C4.024907-5.459527 3.897385-5.459527 3.897385-5.316065C3.897385-5.180573 4.040847-5.180573 4.128518-5.180573C4.574844-5.172603 4.638605-5.0132 4.638605-4.590785V-2.096139L2.231631-5.347945C2.15193-5.459527 2.12802-5.459527 1.944707-5.459527H.557908C.414446-5.459527 .294894-5.459527 .294894-5.316065C.294894-5.196513 .414446-5.180573 .462267-5.180573C.67746-5.156663 .828892-5.029141 .908593-4.933499C.892653-4.869738 .892653-4.853798 .892653-4.742217ZM4.694396-.406476L1.227397-4.98929C1.147696-5.084932 1.147696-5.100872 1.060025-5.180573H2.008468L4.694396-1.554172V-.406476Z"/><path id="Adjm_g3-50" d="M4.630635-1.809215C4.758157-1.809215 4.933499-1.809215 4.933499-1.992528S4.758157-2.175841 4.630635-2.175841H1.075965C1.179577-3.283686 2.10411-4.128518 3.315567-4.128518H4.630635C4.758157-4.128518 4.933499-4.128518 4.933499-4.311831S4.758157-4.495143 4.630635-4.495143H3.291656C1.857036-4.495143 .70137-3.379328 .70137-1.992528C.70137-.597758 1.865006 .510087 3.291656 .510087H4.630635C4.758157 .510087 4.933499 .510087 4.933499 .326775S4.758157 .143462 4.630635 .143462H3.315567C2.10411 .143462 1.179577-.70137 1.075965-1.809215H4.630635Z"/><path id="Adjm_g4-107" d="M2.327273-5.292154C2.335243-5.308095 2.359153-5.411706 2.359153-5.419676C2.359153-5.459527 2.327273-5.531258 2.231631-5.531258C2.199751-5.531258 1.952677-5.507347 1.769365-5.491407L1.323039-5.459527C1.147696-5.443587 1.067995-5.435616 1.067995-5.292154C1.067995-5.180573 1.179577-5.180573 1.275218-5.180573C1.657783-5.180573 1.657783-5.132752 1.657783-5.061021C1.657783-5.037111 1.657783-5.021171 1.617933-4.877709L.486177-.342715C.454296-.223163 .454296-.175342 .454296-.167372C.454296-.03188 .565878 .079701 .71731 .079701C.988294 .079701 1.052055-.175342 1.083935-.286924C1.163636-.621669 1.370859-1.466501 1.458531-1.801245C1.896887-1.753425 2.430884-1.601993 2.430884-1.147696C2.430884-1.107846 2.430884-1.067995 2.414944-.988294C2.391034-.884682 2.375093-.773101 2.375093-.73325C2.375093-.263014 2.725778 .079701 3.188045 .079701C3.52279 .079701 3.730012-.167372 3.833624-.318804C4.024907-.613699 4.152428-1.091905 4.152428-1.139726C4.152428-1.219427 4.088667-1.243337 4.032877-1.243337C3.937235-1.243337 3.921295-1.195517 3.889415-1.052055C3.785803-.67746 3.57858-.143462 3.203985-.143462C2.996762-.143462 2.948941-.318804 2.948941-.533998C2.948941-.637609 2.956912-.73325 2.996762-.916563C3.004732-.948443 3.036613-1.075965 3.036613-1.163636C3.036613-1.817186 2.215691-1.960648 1.809215-2.016438C2.10411-2.191781 2.375093-2.462765 2.470735-2.566376C2.909091-2.996762 3.267746-3.291656 3.650311-3.291656C3.753923-3.291656 3.849564-3.267746 3.913325-3.188045C3.482939-3.132254 3.482939-2.757659 3.482939-2.749689C3.482939-2.574346 3.618431-2.454795 3.793773-2.454795C4.008966-2.454795 4.24807-2.630137 4.24807-2.956912C4.24807-3.227895 4.056787-3.514819 3.658281-3.514819C3.196015-3.514819 2.781569-3.164134 2.327273-2.709838C1.865006-2.255542 1.665753-2.16787 1.538232-2.11208L2.327273-5.292154Z"/><path id="Adjm_g2-3" d="M2.779577-.842839C2.934994-.735243 2.946949-.735243 2.988792-.735243C3.090411-.735243 3.186052-.824907 3.186052-.944458S3.096389-1.099875 3.048568-1.123786C2.743711-1.249315 2.438854-1.374844 2.12802-1.488418C2.737733-1.739477 2.905106-1.799253 3.012702-1.847073C3.102366-1.888917 3.186052-1.918804 3.186052-2.038356S3.090411-2.247572 2.988792-2.247572C2.940971-2.247572 2.905106-2.223661 2.857285-2.193773L2.008468-1.655791C2.014446-1.739477 2.038356-1.948692 2.044334-2.020423C2.056289-2.139975 2.10411-2.49863 2.10411-2.600249S2.014446-2.779577 1.906849-2.779577C1.80523-2.779577 1.709589-2.701868 1.709589-2.600249C1.709589-2.588294 1.763387-2.050311 1.769365-2.026401C1.775342-1.960648 1.799253-1.733499 1.80523-1.655791L.956413-2.193773C.908593-2.223661 .872727-2.247572 .824907-2.247572C.723288-2.247572 .627646-2.157908 .627646-2.038356S.71731-1.882939 .765131-1.859029C1.069988-1.733499 1.374844-1.60797 1.685679-1.494396C1.075965-1.243337 .908593-1.183562 .800996-1.135741C.711333-1.093898 .627646-1.06401 .627646-.944458S.723288-.735243 .824907-.735243C.872727-.735243 .974346-.800996 1.046077-.848817C1.129763-.896638 1.333001-1.028144 1.41071-1.081943C1.60797-1.207472 1.679701-1.255293 1.80523-1.327024C1.799253-1.243337 1.775342-1.034122 1.769365-.962391L1.709589-.382565C1.709589-.280946 1.80523-.203238 1.906849-.203238C2.014446-.203238 2.10411-.280946 2.10411-.382565C2.10411-.388543 2.050311-.926526 2.044334-.956413C2.038356-1.022167 2.014446-1.249315 2.008468-1.327024L2.779577-.842839Z"/><path id="Adjm_g1-88" d="M15.135243 16.737235L16.581818 12.911582H16.282939C15.816687 14.154919 14.54944 14.96787 13.174595 15.326526C12.923537 15.386301 11.75193 15.697136 9.456538 15.697136H2.247572L8.332752 8.5599C8.416438 8.464259 8.440349 8.428394 8.440349 8.368618C8.440349 8.344707 8.440349 8.308842 8.356663 8.18929L2.785554 .573848H9.336986C10.938979 .573848 12.026899 .74122 12.134496 .765131C12.780075 .860772 13.820174 1.06401 14.764633 1.661768C15.063512 1.853051 15.876463 2.391034 16.282939 3.359402H16.581818L15.135243 0H1.004234C.729265 0 .71731 .011955 .681445 .083686C.669489 .119552 .669489 .3467 .669489 .478207L6.993773 9.133748L.800996 16.390535C.681445 16.533998 .681445 16.593773 .681445 16.605729C.681445 16.737235 .789041 16.737235 1.004234 16.737235H15.135243Z"/></defs><g id="Adjm_page1"><g fill="#c5c5ce"><use x="1.535958" y="-11.357464" xlink:href="#Adjm_g1-88"/><use x="0" y="14.102754" xlink:href="#Adjm_g4-107"/><use x="4.621615" y="14.102754" xlink:href="#Adjm_g3-50"/><use x="10.267193" y="14.102754" xlink:href="#Adjm_g0-78"/><use x="16.023401" y="11.833493" xlink:href="#Adjm_g2-3"/><use x="26.21295" y="-8.087759" xlink:href="#Adjm_g7-49"/></g><rect x="23.528528" y="-3.227886" height=".478187" width="11.221819" fill="#c5c5ce"/><g fill="#c5c5ce"><use x="23.528528" y="8.200662" xlink:href="#Adjm_g5-107"/><use x="30.018032" y="4.746954" xlink:href="#Adjm_g6-50"/><use x="39.26669" y="0" xlink:href="#Adjm_g7-61"/><use x="52.887685" y="-8.087759" xlink:href="#Adjm_g5-25"/><use x="59.956955" y="-12.426195" xlink:href="#Adjm_g6-50"/></g><rect x="52.887685" y="-3.227886" height=".478187" width="11.801585" fill="#c5c5ce"/><g fill="#c5c5ce"><use x="55.86199" y="8.200662" xlink:href="#Adjm_g7-54"/></g></g></svg>
