<svg xmlns="http://www.w3.org/2000/svg" xmlns:xlink="http://www.w3.org/1999/xlink" version="1.1" width="16.290797em" height="2.726866em" viewBox="0 -18.375595 194.031598 32.47835" style="vertical-align:-1.184060em"><defs><path id="cBDm_g1-0" d="M5.571108-1.809215C5.69863-1.809215 5.873973-1.809215 5.873973-1.992528S5.69863-2.175841 5.571108-2.175841H1.004234C.876712-2.175841 .70137-2.175841 .70137-1.992528S.876712-1.809215 1.004234-1.809215H5.571108Z"/><path id="cBDm_g5-48" d="M3.897385-2.542466C3.897385-3.395268 3.809714-3.913325 3.5467-4.423412C3.196015-5.124782 2.550436-5.300125 2.11208-5.300125C1.107846-5.300125 .74122-4.550934 .629639-4.327771C.342715-3.745953 .326775-2.956912 .326775-2.542466C.326775-2.016438 .350685-1.211457 .73325-.573848C1.099875 .01594 1.689664 .167372 2.11208 .167372C2.494645 .167372 3.180075 .047821 3.57858-.74122C3.873474-1.315068 3.897385-2.024408 3.897385-2.542466ZM2.11208-.055791C1.841096-.055791 1.291158-.183313 1.123786-1.020174C1.036115-1.474471 1.036115-2.223661 1.036115-2.638107C1.036115-3.188045 1.036115-3.745953 1.123786-4.184309C1.291158-4.99726 1.912827-5.076961 2.11208-5.076961C2.383064-5.076961 2.933001-4.941469 3.092403-4.216189C3.188045-3.777833 3.188045-3.180075 3.188045-2.638107C3.188045-2.16787 3.188045-1.45056 3.092403-1.004234C2.925031-.167372 2.375093-.055791 2.11208-.055791Z"/><path id="cBDm_g5-61" d="M5.826152-2.654047C5.945704-2.654047 6.105106-2.654047 6.105106-2.83736S5.913823-3.020672 5.794271-3.020672H.781071C.661519-3.020672 .470237-3.020672 .470237-2.83736S.629639-2.654047 .749191-2.654047H5.826152ZM5.794271-.964384C5.913823-.964384 6.105106-.964384 6.105106-1.147696S5.945704-1.331009 5.826152-1.331009H.749191C.629639-1.331009 .470237-1.331009 .470237-1.147696S.661519-.964384 .781071-.964384H5.794271Z"/><path id="cBDm_g0-18" d="M8.368618 28.08269C8.368618 28.034869 8.344707 28.010959 8.320797 27.975093C7.878456 27.532752 7.07746 26.731756 6.276463 25.440598C4.351681 22.356164 3.478954 18.470735 3.478954 13.867995C3.478954 10.652055 3.90934 6.503611 5.881943 2.940971C6.826401 1.243337 7.806725 .263014 8.332752-.263014C8.368618-.298879 8.368618-.32279 8.368618-.358655C8.368618-.478207 8.284932-.478207 8.117559-.478207S7.926276-.478207 7.746949-.298879C3.741968 3.347447 2.486675 8.822914 2.486675 13.85604C2.486675 18.554421 3.56264 23.288667 6.599253 26.863263C6.838356 27.138232 7.292653 27.628394 7.782814 28.05878C7.926276 28.202242 7.950187 28.202242 8.117559 28.202242S8.368618 28.202242 8.368618 28.08269Z"/><path id="cBDm_g0-19" d="M6.300374 13.867995C6.300374 9.169614 5.224408 4.435367 2.187796 .860772C1.948692 .585803 1.494396 .095641 1.004234-.334745C.860772-.478207 .836862-.478207 .669489-.478207C.526027-.478207 .418431-.478207 .418431-.358655C.418431-.310834 .466252-.263014 .490162-.239103C.908593 .191283 1.709589 .992279 2.510585 2.283437C4.435367 5.36787 5.308095 9.2533 5.308095 13.85604C5.308095 17.07198 4.877709 21.220423 2.905106 24.783064C1.960648 26.480697 .968369 27.472976 .466252 27.975093C.442341 28.010959 .418431 28.046824 .418431 28.08269C.418431 28.202242 .526027 28.202242 .669489 28.202242C.836862 28.202242 .860772 28.202242 1.0401 28.022914C5.045081 24.376588 6.300374 18.901121 6.300374 13.867995Z"/><path id="cBDm_g0-88" d="M15.135243 16.737235L16.581818 12.911582H16.282939C15.816687 14.154919 14.54944 14.96787 13.174595 15.326526C12.923537 15.386301 11.75193 15.697136 9.456538 15.697136H2.247572L8.332752 8.5599C8.416438 8.464259 8.440349 8.428394 8.440349 8.368618C8.440349 8.344707 8.440349 8.308842 8.356663 8.18929L2.785554 .573848H9.336986C10.938979 .573848 12.026899 .74122 12.134496 .765131C12.780075 .860772 13.820174 1.06401 14.764633 1.661768C15.063512 1.853051 15.876463 2.391034 16.282939 3.359402H16.581818L15.135243 0H1.004234C.729265 0 .71731 .011955 .681445 .083686C.669489 .119552 .669489 .3467 .669489 .478207L6.993773 9.133748L.800996 16.390535C.681445 16.533998 .681445 16.593773 .681445 16.605729C.681445 16.737235 .789041 16.737235 1.004234 16.737235H15.135243Z"/><path id="cBDm_g2-3" d="M3.287671-5.104857C3.299626-5.272229 3.299626-5.559153 2.988792-5.559153C2.797509-5.559153 2.642092-5.403736 2.677958-5.248319V-5.092902L2.84533-3.239851L1.315068-4.351681C1.207472-4.411457 1.183562-4.435367 1.099875-4.435367C.932503-4.435367 .777086-4.267995 .777086-4.100623C.777086-3.90934 .896638-3.861519 1.016189-3.801743L2.713823-2.988792L1.06401-2.187796C.872727-2.092154 .777086-2.044334 .777086-1.865006S.932503-1.530262 1.099875-1.530262C1.183562-1.530262 1.207472-1.530262 1.506351-1.75741L2.84533-2.725778L2.666002-.71731C2.666002-.466252 2.881196-.406476 2.976837-.406476C3.120299-.406476 3.299626-.490162 3.299626-.71731L3.120299-2.725778L4.65056-1.613948C4.758157-1.554172 4.782067-1.530262 4.865753-1.530262C5.033126-1.530262 5.188543-1.697634 5.188543-1.865006C5.188543-2.044334 5.080946-2.10411 4.937484-2.175841C4.220174-2.534496 4.196264-2.534496 3.251806-2.976837L4.901619-3.777833C5.092902-3.873474 5.188543-3.921295 5.188543-4.100623S5.033126-4.435367 4.865753-4.435367C4.782067-4.435367 4.758157-4.435367 4.459278-4.208219L3.120299-3.239851L3.287671-5.104857Z"/><path id="cBDm_g6-40" d="M3.88543 2.905106C3.88543 2.86924 3.88543 2.84533 3.682192 2.642092C2.486675 1.43462 1.817186-.537983 1.817186-2.976837C1.817186-5.296139 2.379078-7.292653 3.765878-8.703362C3.88543-8.810959 3.88543-8.834869 3.88543-8.870735C3.88543-8.942466 3.825654-8.966376 3.777833-8.966376C3.622416-8.966376 2.642092-8.105604 2.056289-6.933998C1.446575-5.726526 1.171606-4.447323 1.171606-2.976837C1.171606-1.912827 1.338979-.490162 1.960648 .789041C2.666002 2.223661 3.646326 3.000747 3.777833 3.000747C3.825654 3.000747 3.88543 2.976837 3.88543 2.905106Z"/><path id="cBDm_g6-41" d="M3.371357-2.976837C3.371357-3.88543 3.251806-5.36787 2.582316-6.75467C1.876961-8.18929 .896638-8.966376 .765131-8.966376C.71731-8.966376 .657534-8.942466 .657534-8.870735C.657534-8.834869 .657534-8.810959 .860772-8.607721C2.056289-7.400249 2.725778-5.427646 2.725778-2.988792C2.725778-.669489 2.163885 1.327024 .777086 2.737733C.657534 2.84533 .657534 2.86924 .657534 2.905106C.657534 2.976837 .71731 3.000747 .765131 3.000747C.920548 3.000747 1.900872 2.139975 2.486675 .968369C3.096389-.251059 3.371357-1.542217 3.371357-2.976837Z"/><path id="cBDm_g6-61" d="M8.069738-3.873474C8.237111-3.873474 8.452304-3.873474 8.452304-4.088667C8.452304-4.315816 8.249066-4.315816 8.069738-4.315816H1.028144C.860772-4.315816 .645579-4.315816 .645579-4.100623C.645579-3.873474 .848817-3.873474 1.028144-3.873474H8.069738ZM8.069738-1.649813C8.237111-1.649813 8.452304-1.649813 8.452304-1.865006C8.452304-2.092154 8.249066-2.092154 8.069738-2.092154H1.028144C.860772-2.092154 .645579-2.092154 .645579-1.876961C.645579-1.649813 .848817-1.649813 1.028144-1.649813H8.069738Z"/><path id="cBDm_g3-107" d="M2.327273-5.292154C2.335243-5.308095 2.359153-5.411706 2.359153-5.419676C2.359153-5.459527 2.327273-5.531258 2.231631-5.531258C2.199751-5.531258 1.952677-5.507347 1.769365-5.491407L1.323039-5.459527C1.147696-5.443587 1.067995-5.435616 1.067995-5.292154C1.067995-5.180573 1.179577-5.180573 1.275218-5.180573C1.657783-5.180573 1.657783-5.132752 1.657783-5.061021C1.657783-5.037111 1.657783-5.021171 1.617933-4.877709L.486177-.342715C.454296-.223163 .454296-.175342 .454296-.167372C.454296-.03188 .565878 .079701 .71731 .079701C.988294 .079701 1.052055-.175342 1.083935-.286924C1.163636-.621669 1.370859-1.466501 1.458531-1.801245C1.896887-1.753425 2.430884-1.601993 2.430884-1.147696C2.430884-1.107846 2.430884-1.067995 2.414944-.988294C2.391034-.884682 2.375093-.773101 2.375093-.73325C2.375093-.263014 2.725778 .079701 3.188045 .079701C3.52279 .079701 3.730012-.167372 3.833624-.318804C4.024907-.613699 4.152428-1.091905 4.152428-1.139726C4.152428-1.219427 4.088667-1.243337 4.032877-1.243337C3.937235-1.243337 3.921295-1.195517 3.889415-1.052055C3.785803-.67746 3.57858-.143462 3.203985-.143462C2.996762-.143462 2.948941-.318804 2.948941-.533998C2.948941-.637609 2.956912-.73325 2.996762-.916563C3.004732-.948443 3.036613-1.075965 3.036613-1.163636C3.036613-1.817186 2.215691-1.960648 1.809215-2.016438C2.10411-2.191781 2.375093-2.462765 2.470735-2.566376C2.909091-2.996762 3.267746-3.291656 3.650311-3.291656C3.753923-3.291656 3.849564-3.267746 3.913325-3.188045C3.482939-3.132254 3.482939-2.757659 3.482939-2.749689C3.482939-2.574346 3.618431-2.454795 3.793773-2.454795C4.008966-2.454795 4.24807-2.630137 4.24807-2.956912C4.24807-3.227895 4.056787-3.514819 3.658281-3.514819C3.196015-3.514819 2.781569-3.164134 2.327273-2.709838C1.865006-2.255542 1.665753-2.16787 1.538232-2.11208L2.327273-5.292154Z"/><path id="cBDm_g3-110" d="M1.594022-1.307098C1.617933-1.42665 1.697634-1.729514 1.721544-1.849066C1.833126-2.279452 1.833126-2.287422 2.016438-2.550436C2.279452-2.940971 2.654047-3.291656 3.188045-3.291656C3.474969-3.291656 3.642341-3.124284 3.642341-2.749689C3.642341-2.311333 3.307597-1.40274 3.156164-1.012204C3.052553-.749191 3.052553-.70137 3.052553-.597758C3.052553-.143462 3.427148 .079701 3.769863 .079701C4.550934 .079701 4.877709-1.036115 4.877709-1.139726C4.877709-1.219427 4.813948-1.243337 4.758157-1.243337C4.662516-1.243337 4.646575-1.187547 4.622665-1.107846C4.431382-.454296 4.096638-.143462 3.793773-.143462C3.666252-.143462 3.602491-.223163 3.602491-.406476S3.666252-.765131 3.745953-.964384C3.865504-1.267248 4.216189-2.183811 4.216189-2.630137C4.216189-3.227895 3.801743-3.514819 3.227895-3.514819C2.582316-3.514819 2.16787-3.124284 1.936737-2.82142C1.880946-3.259776 1.530262-3.514819 1.123786-3.514819C.836862-3.514819 .637609-3.331507 .510087-3.084433C.318804-2.709838 .239103-2.311333 .239103-2.295392C.239103-2.223661 .294894-2.191781 .358655-2.191781C.462267-2.191781 .470237-2.223661 .526027-2.430884C.621669-2.82142 .765131-3.291656 1.099875-3.291656C1.307098-3.291656 1.354919-3.092403 1.354919-2.917061C1.354919-2.773599 1.315068-2.622167 1.251308-2.359153C1.235367-2.295392 1.115816-1.825156 1.083935-1.713574L.789041-.518057C.757161-.398506 .70934-.199253 .70934-.167372C.70934 .01594 .860772 .079701 .964384 .079701C1.107846 .079701 1.227397-.01594 1.283188-.111582C1.307098-.159402 1.370859-.430386 1.41071-.597758L1.594022-1.307098Z"/><path id="cBDm_g4-82" d="M4.399502-7.352428C4.507098-7.79477 4.554919-7.81868 5.021171-7.81868H5.881943C6.910087-7.81868 7.675218-7.507846 7.675218-6.575342C7.675218-5.965629 7.364384-4.208219 4.961395-4.208219H3.610461L4.399502-7.352428ZM6.06127-4.064757C7.543711-4.387547 8.703362-5.34396 8.703362-6.372105C8.703362-7.304608 7.758904-8.16538 6.097136-8.16538H2.857285C2.618182-8.16538 2.510585-8.16538 2.510585-7.938232C2.510585-7.81868 2.594271-7.81868 2.82142-7.81868C3.53873-7.81868 3.53873-7.723039 3.53873-7.591532C3.53873-7.567621 3.53873-7.49589 3.490909-7.316563L1.876961-.884682C1.769365-.466252 1.745455-.3467 .920548-.3467C.645579-.3467 .561893-.3467 .561893-.119552C.561893 0 .6934 0 .729265 0C.944458 0 1.195517-.02391 1.422665-.02391H2.833375C3.048568-.02391 3.299626 0 3.514819 0C3.610461 0 3.741968 0 3.741968-.227148C3.741968-.3467 3.634371-.3467 3.455044-.3467C2.725778-.3467 2.725778-.442341 2.725778-.561893C2.725778-.573848 2.725778-.657534 2.749689-.753176L3.550685-3.969116H4.985305C6.121046-3.969116 6.336239-3.251806 6.336239-2.857285C6.336239-2.677958 6.216687-2.211706 6.133001-1.900872C6.001494-1.350934 5.965629-1.219427 5.965629-.992279C5.965629-.143462 6.659029 .251059 7.460025 .251059C8.428394 .251059 8.846824-.932503 8.846824-1.099875C8.846824-1.183562 8.787049-1.219427 8.715318-1.219427C8.619676-1.219427 8.595766-1.147696 8.571856-1.052055C8.284932-.203238 7.79477 .011955 7.49589 .011955S7.005729-.119552 7.005729-.657534C7.005729-.944458 7.149191-2.032379 7.161146-2.092154C7.220922-2.534496 7.220922-2.582316 7.220922-2.677958C7.220922-3.550685 6.515567-3.921295 6.06127-4.064757Z"/><path id="cBDm_g4-84" d="M4.985305-7.292653C5.057036-7.579577 5.080946-7.687173 5.260274-7.734994C5.355915-7.758904 5.750436-7.758904 6.001494-7.758904C7.197011-7.758904 7.758904-7.711083 7.758904-6.77858C7.758904-6.599253 7.711083-6.144956 7.639352-5.702615L7.627397-5.559153C7.627397-5.511333 7.675218-5.439601 7.746949-5.439601C7.866501-5.439601 7.866501-5.499377 7.902366-5.69066L8.249066-7.806725C8.272976-7.914321 8.272976-7.938232 8.272976-7.974097C8.272976-8.105604 8.201245-8.105604 7.962142-8.105604H1.422665C1.147696-8.105604 1.135741-8.093649 1.06401-7.878456L.334745-5.726526C.32279-5.702615 .286924-5.571108 .286924-5.559153C.286924-5.499377 .334745-5.439601 .406476-5.439601C.502117-5.439601 .526027-5.487422 .573848-5.642839C1.075965-7.089415 1.327024-7.758904 2.917061-7.758904H3.718057C4.004981-7.758904 4.124533-7.758904 4.124533-7.627397C4.124533-7.591532 4.124533-7.567621 4.064757-7.352428L2.462765-.932503C2.343213-.466252 2.319303-.3467 1.052055-.3467C.753176-.3467 .669489-.3467 .669489-.119552C.669489 0 .800996 0 .860772 0C1.159651 0 1.470486-.02391 1.769365-.02391H3.634371C3.93325-.02391 4.25604 0 4.554919 0C4.686426 0 4.805978 0 4.805978-.227148C4.805978-.3467 4.722291-.3467 4.411457-.3467C3.335492-.3467 3.335492-.454296 3.335492-.633624C3.335492-.645579 3.335492-.729265 3.383313-.920548L4.985305-7.292653Z"/><path id="cBDm_g4-107" d="M3.359402-7.998007C3.371357-8.045828 3.395268-8.117559 3.395268-8.177335C3.395268-8.296887 3.275716-8.296887 3.251806-8.296887C3.239851-8.296887 2.809465-8.261021 2.594271-8.237111C2.391034-8.225156 2.211706-8.201245 1.996513-8.18929C1.709589-8.16538 1.625903-8.153425 1.625903-7.938232C1.625903-7.81868 1.745455-7.81868 1.865006-7.81868C2.47472-7.81868 2.47472-7.711083 2.47472-7.591532C2.47472-7.543711 2.47472-7.519801 2.414944-7.304608L.705355-.466252C.657534-.286924 .657534-.263014 .657534-.191283C.657534 .071731 .860772 .119552 .980324 .119552C1.315068 .119552 1.3868-.143462 1.482441-.514072L2.044334-2.749689C2.905106-2.654047 3.419178-2.295392 3.419178-1.721544C3.419178-1.649813 3.419178-1.601993 3.383313-1.422665C3.335492-1.243337 3.335492-1.099875 3.335492-1.0401C3.335492-.3467 3.789788 .119552 4.399502 .119552C4.94944 .119552 5.236364-.382565 5.332005-.549938C5.583064-.992279 5.738481-1.661768 5.738481-1.709589C5.738481-1.769365 5.69066-1.817186 5.618929-1.817186C5.511333-1.817186 5.499377-1.769365 5.451557-1.578082C5.284184-.956413 5.033126-.119552 4.423412-.119552C4.184309-.119552 4.028892-.239103 4.028892-.6934C4.028892-.920548 4.076712-1.183562 4.124533-1.362889C4.172354-1.578082 4.172354-1.590037 4.172354-1.733499C4.172354-2.438854 3.53873-2.833375 2.438854-2.976837C2.86924-3.239851 3.299626-3.706102 3.466999-3.88543C4.148443-4.65056 4.614695-5.033126 5.164633-5.033126C5.439601-5.033126 5.511333-4.961395 5.595019-4.889664C5.152677-4.841843 4.985305-4.531009 4.985305-4.291905C4.985305-4.004981 5.212453-3.90934 5.379826-3.90934C5.702615-3.90934 5.989539-4.184309 5.989539-4.566874C5.989539-4.913574 5.71457-5.272229 5.176588-5.272229C4.519054-5.272229 3.981071-4.805978 3.132254-3.849564C3.012702-3.706102 2.570361-3.251806 2.12802-3.084433L3.359402-7.998007Z"/><path id="cBDm_g4-110" d="M2.462765-3.502864C2.486675-3.574595 2.785554-4.172354 3.227895-4.554919C3.53873-4.841843 3.945205-5.033126 4.411457-5.033126C4.889664-5.033126 5.057036-4.674471 5.057036-4.196264C5.057036-3.514819 4.566874-2.15193 4.327771-1.506351C4.220174-1.219427 4.160399-1.06401 4.160399-.848817C4.160399-.310834 4.531009 .119552 5.104857 .119552C6.216687 .119552 6.635118-1.637858 6.635118-1.709589C6.635118-1.769365 6.587298-1.817186 6.515567-1.817186C6.40797-1.817186 6.396015-1.78132 6.336239-1.578082C6.06127-.597758 5.606974-.119552 5.140722-.119552C5.021171-.119552 4.829888-.131507 4.829888-.514072C4.829888-.812951 4.961395-1.171606 5.033126-1.338979C5.272229-1.996513 5.774346-3.335492 5.774346-4.016936C5.774346-4.734247 5.355915-5.272229 4.447323-5.272229C3.383313-5.272229 2.82142-4.519054 2.606227-4.220174C2.570361-4.901619 2.080199-5.272229 1.554172-5.272229C1.171606-5.272229 .908593-5.045081 .705355-4.638605C.490162-4.208219 .32279-3.490909 .32279-3.443088S.37061-3.335492 .454296-3.335492C.549938-3.335492 .561893-3.347447 .633624-3.622416C.824907-4.351681 1.0401-5.033126 1.518306-5.033126C1.793275-5.033126 1.888917-4.841843 1.888917-4.483188C1.888917-4.220174 1.769365-3.753923 1.685679-3.383313L1.350934-2.092154C1.303113-1.865006 1.171606-1.327024 1.111831-1.111831C1.028144-.800996 .896638-.239103 .896638-.179328C.896638-.011955 1.028144 .119552 1.207472 .119552C1.350934 .119552 1.518306 .047821 1.613948-.131507C1.637858-.191283 1.745455-.609714 1.80523-.848817L2.068244-1.924782L2.462765-3.502864Z"/><path id="cBDm_g4-120" d="M5.66675-4.877709C5.284184-4.805978 5.140722-4.519054 5.140722-4.291905C5.140722-4.004981 5.36787-3.90934 5.535243-3.90934C5.893898-3.90934 6.144956-4.220174 6.144956-4.542964C6.144956-5.045081 5.571108-5.272229 5.068991-5.272229C4.339726-5.272229 3.93325-4.554919 3.825654-4.327771C3.550685-5.224408 2.809465-5.272229 2.594271-5.272229C1.374844-5.272229 .729265-3.706102 .729265-3.443088C.729265-3.395268 .777086-3.335492 .860772-3.335492C.956413-3.335492 .980324-3.407223 1.004234-3.455044C1.41071-4.782067 2.211706-5.033126 2.558406-5.033126C3.096389-5.033126 3.203985-4.531009 3.203985-4.244085C3.203985-3.981071 3.132254-3.706102 2.988792-3.132254L2.582316-1.494396C2.402989-.777086 2.056289-.119552 1.422665-.119552C1.362889-.119552 1.06401-.119552 .812951-.274969C1.243337-.358655 1.338979-.71731 1.338979-.860772C1.338979-1.099875 1.159651-1.243337 .932503-1.243337C.645579-1.243337 .334745-.992279 .334745-.609714C.334745-.107597 .896638 .119552 1.41071 .119552C1.984558 .119552 2.391034-.334745 2.642092-.824907C2.833375-.119552 3.431133 .119552 3.873474 .119552C5.092902 .119552 5.738481-1.446575 5.738481-1.709589C5.738481-1.769365 5.69066-1.817186 5.618929-1.817186C5.511333-1.817186 5.499377-1.75741 5.463512-1.661768C5.140722-.609714 4.447323-.119552 3.90934-.119552C3.490909-.119552 3.263761-.430386 3.263761-.920548C3.263761-1.183562 3.311582-1.374844 3.502864-2.163885L3.921295-3.789788C4.100623-4.507098 4.507098-5.033126 5.057036-5.033126C5.080946-5.033126 5.415691-5.033126 5.66675-4.877709Z"/></defs><g id="cBDm_page1"><g fill="#c5c5ce"><use x="0" y="0" xlink:href="#cBDm_g4-120"/><use x="6.652087" y="-4.936186" xlink:href="#cBDm_g3-110"/><use x="12.288422" y="0" xlink:href="#cBDm_g6-40"/><use x="16.840747" y="0" xlink:href="#cBDm_g4-84"/><use x="27.984247" y="0" xlink:href="#cBDm_g2-3"/><use x="36.618517" y="0" xlink:href="#cBDm_g4-82"/><use x="45.627032" y="0" xlink:href="#cBDm_g6-41"/><use x="53.500188" y="0" xlink:href="#cBDm_g6-61"/><use x="71.990876" y="-14.944021" xlink:href="#cBDm_g3-110"/><use x="65.925668" y="-11.357464" xlink:href="#cBDm_g0-88"/><use x="66.838824" y="14.102754" xlink:href="#cBDm_g3-107"/><use x="71.46044" y="14.102754" xlink:href="#cBDm_g5-61"/><use x="78.046946" y="14.102754" xlink:href="#cBDm_g5-48"/><use x="85.186783" y="-16.856937" xlink:href="#cBDm_g0-18"/><use x="93.987155" y="-7.322577" xlink:href="#cBDm_g4-110"/><use x="94.236206" y="7.123236" xlink:href="#cBDm_g4-107"/><use x="100.974761" y="-16.856937" xlink:href="#cBDm_g0-19"/><use x="111.767631" y="0" xlink:href="#cBDm_g6-40"/><use x="116.319957" y="0" xlink:href="#cBDm_g4-120"/><use x="122.972044" y="-4.936186" xlink:href="#cBDm_g3-107"/><use x="128.091792" y="0" xlink:href="#cBDm_g4-84"/><use x="136.578628" y="0" xlink:href="#cBDm_g6-41"/><use x="143.787617" y="0" xlink:href="#cBDm_g2-3"/><use x="152.421887" y="0" xlink:href="#cBDm_g6-40"/><use x="156.974213" y="0" xlink:href="#cBDm_g4-120"/><use x="163.6263" y="-4.936186" xlink:href="#cBDm_g3-110"/><use x="168.764503" y="-4.936186" xlink:href="#cBDm_g1-0"/><use x="175.351009" y="-4.936186" xlink:href="#cBDm_g3-107"/><use x="180.470757" y="0" xlink:href="#cBDm_g4-82"/><use x="189.479272" y="0" xlink:href="#cBDm_g6-41"/></g></g></svg>
