<svg xmlns="http://www.w3.org/2000/svg" xmlns:xlink="http://www.w3.org/1999/xlink" version="1.1" width="4.918568em" height="2.238040em" viewBox="0 -18.455519 58.582622 26.656181" style="vertical-align:-0.688524em"><defs><path id="SraI_g0-112" d="M4.65056 10.221669L2.546451 5.571108C2.462765 5.379826 2.402989 5.379826 2.367123 5.379826C2.355168 5.379826 2.295392 5.379826 2.163885 5.475467L1.028144 6.336239C.872727 6.455791 .872727 6.491656 .872727 6.527522C.872727 6.587298 .908593 6.659029 .992279 6.659029C1.06401 6.659029 1.267248 6.491656 1.398755 6.396015C1.470486 6.336239 1.649813 6.204732 1.78132 6.109091L4.136488 11.285679C4.220174 11.476961 4.27995 11.476961 4.387547 11.476961C4.566874 11.476961 4.60274 11.40523 4.686426 11.237858L10.114072 0C10.197758-.167372 10.197758-.215193 10.197758-.239103C10.197758-.358655 10.102117-.478207 9.958655-.478207C9.863014-.478207 9.779328-.418431 9.683686-.227148L4.65056 10.221669Z"/><path id="SraI_g1-25" d="M3.096389-4.507098H4.447323C4.124533-3.16812 3.921295-2.295392 3.921295-1.338979C3.921295-1.171606 3.921295 .119552 4.411457 .119552C4.662516 .119552 4.877709-.107597 4.877709-.310834C4.877709-.37061 4.877709-.394521 4.794022-.573848C4.471233-1.398755 4.471233-2.426899 4.471233-2.510585C4.471233-2.582316 4.471233-3.431133 4.722291-4.507098H6.06127C6.216687-4.507098 6.611208-4.507098 6.611208-4.889664C6.611208-5.152677 6.38406-5.152677 6.168867-5.152677H2.235616C1.960648-5.152677 1.554172-5.152677 1.004234-4.566874C.6934-4.220174 .310834-3.58655 .310834-3.514819S.37061-3.419178 .442341-3.419178C.526027-3.419178 .537983-3.455044 .597758-3.526775C1.219427-4.507098 1.841096-4.507098 2.139975-4.507098H2.82142C2.558406-3.610461 2.259527-2.570361 1.279203-.478207C1.183562-.286924 1.183562-.263014 1.183562-.191283C1.183562 .059776 1.398755 .119552 1.506351 .119552C1.853051 .119552 1.948692-.191283 2.092154-.6934C2.283437-1.303113 2.283437-1.327024 2.402989-1.80523L3.096389-4.507098Z"/><path id="SraI_g2-50" d="M5.260274-2.008468H4.99726C4.961395-1.80523 4.865753-1.147696 4.746202-.956413C4.662516-.848817 3.981071-.848817 3.622416-.848817H1.41071C1.733499-1.123786 2.462765-1.888917 2.773599-2.175841C4.590785-3.849564 5.260274-4.471233 5.260274-5.654795C5.260274-7.029639 4.172354-7.950187 2.785554-7.950187S.585803-6.766625 .585803-5.738481C.585803-5.128767 1.111831-5.128767 1.147696-5.128767C1.398755-5.128767 1.709589-5.308095 1.709589-5.69066C1.709589-6.025405 1.482441-6.252553 1.147696-6.252553C1.0401-6.252553 1.016189-6.252553 .980324-6.240598C1.207472-7.053549 1.853051-7.603487 2.630137-7.603487C3.646326-7.603487 4.267995-6.75467 4.267995-5.654795C4.267995-4.638605 3.682192-3.753923 3.000747-2.988792L.585803-.286924V0H4.94944L5.260274-2.008468Z"/><path id="SraI_g2-52" d="M4.315816-7.782814C4.315816-8.009963 4.315816-8.069738 4.148443-8.069738C4.052802-8.069738 4.016936-8.069738 3.921295-7.926276L.32279-2.343213V-1.996513H3.466999V-.908593C3.466999-.466252 3.443088-.3467 2.570361-.3467H2.331258V0C2.606227-.02391 3.550685-.02391 3.88543-.02391S5.176588-.02391 5.451557 0V-.3467H5.212453C4.351681-.3467 4.315816-.466252 4.315816-.908593V-1.996513H5.523288V-2.343213H4.315816V-7.782814ZM3.526775-6.850311V-2.343213H.621669L3.526775-6.850311Z"/><path id="SraI_g2-61" d="M8.069738-3.873474C8.237111-3.873474 8.452304-3.873474 8.452304-4.088667C8.452304-4.315816 8.249066-4.315816 8.069738-4.315816H1.028144C.860772-4.315816 .645579-4.315816 .645579-4.100623C.645579-3.873474 .848817-3.873474 1.028144-3.873474H8.069738ZM8.069738-1.649813C8.237111-1.649813 8.452304-1.649813 8.452304-1.865006C8.452304-2.092154 8.249066-2.092154 8.069738-2.092154H1.028144C.860772-2.092154 .645579-2.092154 .645579-1.876961C.645579-1.649813 .848817-1.649813 1.028144-1.649813H8.069738Z"/><path id="SraI_g2-105" d="M2.080199-7.364384C2.080199-7.675218 1.829141-7.950187 1.494396-7.950187C1.183562-7.950187 .920548-7.699128 .920548-7.376339C.920548-7.017684 1.207472-6.790535 1.494396-6.790535C1.865006-6.790535 2.080199-7.10137 2.080199-7.364384ZM.430386-5.140722V-4.794022C1.195517-4.794022 1.303113-4.722291 1.303113-4.136488V-.884682C1.303113-.3467 1.171606-.3467 .394521-.3467V0C.729265-.02391 1.303113-.02391 1.649813-.02391C1.78132-.02391 2.47472-.02391 2.881196 0V-.3467C2.10411-.3467 2.056289-.406476 2.056289-.872727V-5.272229L.430386-5.140722Z"/><path id="SraI_g2-110" d="M5.32005-2.905106C5.32005-4.016936 5.32005-4.351681 5.045081-4.734247C4.698381-5.200498 4.136488-5.272229 3.730012-5.272229C2.570361-5.272229 2.116065-4.27995 2.020423-4.040847H2.008468V-5.272229L.382565-5.140722V-4.794022C1.195517-4.794022 1.291158-4.710336 1.291158-4.124533V-.884682C1.291158-.3467 1.159651-.3467 .382565-.3467V0C.6934-.02391 1.338979-.02391 1.673724-.02391C2.020423-.02391 2.666002-.02391 2.976837 0V-.3467C2.211706-.3467 2.068244-.3467 2.068244-.884682V-3.108344C2.068244-4.363636 2.893151-5.033126 3.634371-5.033126S4.542964-4.423412 4.542964-3.694147V-.884682C4.542964-.3467 4.411457-.3467 3.634371-.3467V0C3.945205-.02391 4.590785-.02391 4.925529-.02391C5.272229-.02391 5.917808-.02391 6.228643 0V-.3467C5.630884-.3467 5.332005-.3467 5.32005-.705355V-2.905106Z"/><path id="SraI_g2-115" d="M3.921295-5.057036C3.921295-5.272229 3.921295-5.332005 3.801743-5.332005C3.706102-5.332005 3.478954-5.068991 3.395268-4.961395C3.024658-5.260274 2.654047-5.332005 2.271482-5.332005C.824907-5.332005 .394521-4.542964 .394521-3.88543C.394521-3.753923 .394521-3.335492 .848817-2.917061C1.231382-2.582316 1.637858-2.49863 2.187796-2.391034C2.84533-2.259527 3.000747-2.223661 3.299626-1.984558C3.514819-1.80523 3.670237-1.542217 3.670237-1.207472C3.670237-.6934 3.371357-.119552 2.319303-.119552C1.530262-.119552 .956413-.573848 .6934-1.769365C.645579-1.984558 .645579-1.996513 .633624-2.008468C.609714-2.056289 .561893-2.056289 .526027-2.056289C.394521-2.056289 .394521-1.996513 .394521-1.78132V-.155417C.394521 .059776 .394521 .119552 .514072 .119552C.573848 .119552 .585803 .107597 .789041-.143462C.848817-.227148 .848817-.251059 1.028144-.442341C1.482441 .119552 2.12802 .119552 2.331258 .119552C3.58655 .119552 4.208219-.573848 4.208219-1.518306C4.208219-2.163885 3.813699-2.546451 3.706102-2.654047C3.275716-3.024658 2.952927-3.096389 2.163885-3.239851C1.80523-3.311582 .932503-3.478954 .932503-4.196264C.932503-4.566874 1.183562-5.116812 2.259527-5.116812C3.56264-5.116812 3.634371-4.004981 3.658281-3.634371C3.670237-3.53873 3.753923-3.53873 3.789788-3.53873C3.921295-3.53873 3.921295-3.598506 3.921295-3.813699V-5.057036Z"/></defs><g id="SraI_page1"><g fill="#c5c5ce"><use x="0" y="0" xlink:href="#SraI_g2-115"/><use x="4.617359" y="0" xlink:href="#SraI_g2-105"/><use x="7.86902" y="0" xlink:href="#SraI_g2-110"/><use x="17.560354" y="-8.087759" xlink:href="#SraI_g1-25"/></g><rect x="17.560354" y="-3.227886" height=".478187" width="7.06927" fill="#c5c5ce"/><g fill="#c5c5ce"><use x="18.168501" y="8.200662" xlink:href="#SraI_g2-52"/><use x="29.145967" y="0" xlink:href="#SraI_g2-61"/><use x="42.766962" y="-17.977324" xlink:href="#SraI_g0-112"/></g><rect x="52.729632" y="-18.455511" height=".478187" width="5.85299" fill="#c5c5ce"/><g fill="#c5c5ce"><use x="52.729632" y="-8.087759" xlink:href="#SraI_g2-50"/></g><rect x="42.766962" y="-3.227886" height=".478187" width="15.815661" fill="#c5c5ce"/><g fill="#c5c5ce"><use x="47.748297" y="8.200662" xlink:href="#SraI_g2-50"/></g></g></svg>
